<svg xmlns="http://www.w3.org/2000/svg" fill="none" viewBox="0 0 1088 385">
    <path fill-rule="evenodd" clip-rule="evenodd" d="M701.08 91.03c-40.9 33.57-76.03 84.23-78.66 137.54s37.34 91.61 103.74 122.97c124.6 58.85 282.8 30.93 326.71-13.73 41.01-41.72 45.93-74.35 15.74-122.17s-50.86-81.68-44.33-124.4c6.43-42.1 1.1-68.62-34.6-80.73-38.63-13.1-84.97-14.9-136.37 0-52.43 15.2-114.18 49.28-152.23 80.52" fill="#90EE90" fill-opacity=".8"/>
    <path d="m21.95 92.08-11.4 32.22H0l16.34-39.8H23zm9.45 32.22L19.98 92.08l-1.19-7.57h6.76l16.4 39.79zm-.48-14.81v6.88h-23v-6.88zm22.28-8.45v23.26h-9.49V94.73h8.91zm-1.24 7.44-2.37.05q0-3.34.91-5.98.9-2.66 2.58-4.51a11 11 0 0 1 4.03-2.87q2.37-.99 5.21-.99 2.3 0 4.22.6a8 8 0 0 1 5.4 5.44q.72 2.16.72 5.33v18.75h-9.52v-18.78q0-1.86-.57-2.86a3 3 0 0 0-1.7-1.43 8 8 0 0 0-2.67-.4q-1.66 0-2.85.6-1.18.57-1.94 1.6-.76 1.05-1.12 2.44a13 13 0 0 0-.33 3m59.71 8.78v-12.68q0-1.35-.45-2.3a3.4 3.4 0 0 0-1.42-1.5 5 5 0 0 0-2.52-.55q-1.3 0-2.28.41a3.3 3.3 0 0 0-1.45 1.18 3.5 3.5 0 0 0-.48 1.88H93.6q0-2 1-3.71a10 10 0 0 1 2.85-3.04 14 14 0 0 1 4.48-2.02q2.62-.74 5.85-.74 3.85 0 6.85 1.18a10.5 10.5 0 0 1 4.8 3.47 9.3 9.3 0 0 1 1.75 5.8V117q0 2.69.34 4.21.36 1.5 1.03 2.63v.46H113q-.67-1.28-1-3.17a23 23 0 0 1-.34-3.88m1.19-10.99.06 4.7h-4.7q-1.58 0-2.73.36-1.12.36-1.82.98-.69.6-1.03 1.42-.3.8-.3 1.75 0 .9.48 1.64.49.72 1.34 1.12.84.41 1.97.41 1.85 0 3.15-.65a6 6 0 0 0 2.06-1.59q.73-.96.73-1.78l2.27 3.56q-.54 1.09-1.33 2.27-.8 1.14-2 2.16-1.22.98-2.94 1.6-1.7.64-4.1.64-3.1 0-5.6-1.12a10.3 10.3 0 0 1-4.04-3.15 7.5 7.5 0 0 1-1.48-4.59q0-2.32.94-4.12a8 8 0 0 1 2.82-3.07 14 14 0 0 1 4.79-1.88q2.88-.66 6.73-.66zm24.53-23.94v41.98h-9.49V82.32zm16.79 0v41.98h-9.48V82.32zm25.38 21.54v6.67H161.9v-6.67zm17.61-9.13v29.57h-9.5V94.73zm-10.07-7.65q0-1.86 1.46-3.04a5.8 5.8 0 0 1 3.82-1.2q2.36 0 3.82 1.2a3.7 3.7 0 0 1 1.48 3.04q0 1.83-1.48 3.03a6 6 0 0 1-3.82 1.18 6 6 0 0 1-3.82-1.18 3.8 3.8 0 0 1-1.46-3.03m26.16 13.96v23.26h-9.48V94.73h8.9zm-1.24 7.44-2.36.05q0-3.34.9-5.98.91-2.66 2.58-4.51a11 11 0 0 1 4.03-2.87q2.37-.99 5.22-.99 2.3 0 4.21.6a8 8 0 0 1 5.4 5.44q.72 2.16.72 5.33v18.75h-9.51v-18.78q0-1.86-.58-2.86a3 3 0 0 0-1.7-1.43 8 8 0 0 0-2.66-.4q-1.68 0-2.85.6-1.2.57-1.94 1.6-.75 1.05-1.13 2.44-.33 1.4-.33 3m45.44-4.61v6.67h-17.64v-6.67zm6.28 5.96v-.58q0-3.25 1.03-5.98 1.03-2.76 3.03-4.79a14 14 0 0 1 4.9-3.14 18 18 0 0 1 6.68-1.15q3.81 0 6.73 1.15 2.94 1.13 4.94 3.14a13 13 0 0 1 3.03 4.79 17 17 0 0 1 1.03 5.98v.58q0 3.22-1.03 5.98a14 14 0 0 1-3.03 4.78 14 14 0 0 1-4.91 3.15 19 19 0 0 1-6.7 1.12q-3.75 0-6.7-1.12a14 14 0 0 1-4.94-3.15 14 14 0 0 1-3.03-4.78 17 17 0 0 1-1.03-5.98m9.48-.58v.58q0 1.75.3 3.28a8 8 0 0 0 1.07 2.67 5 5 0 0 0 1.9 1.8q1.22.64 2.95.64t2.9-.63a5 5 0 0 0 1.92-1.8q.72-1.16 1.03-2.69.33-1.52.33-3.28v-.57q0-1.72-.33-3.22a8 8 0 0 0-1.03-2.7 5 5 0 0 0-1.94-1.84 6 6 0 0 0-2.94-.66q-1.7 0-2.88.66a5 5 0 0 0-1.91 1.83 9 9 0 0 0-1.06 2.7q-.3 1.5-.3 3.23m36.13-8.2v23.26h-9.5V94.73h8.92zm-1.25 7.44-2.36.05q0-3.34.9-5.98.92-2.66 2.59-4.51a11 11 0 0 1 4.03-2.87q2.36-.99 5.21-.99 2.3 0 4.21.6a8 8 0 0 1 5.4 5.44q.73 2.16.73 5.33v18.75h-9.52v-18.78q0-1.86-.58-2.86a3 3 0 0 0-1.7-1.43 8 8 0 0 0-2.66-.4q-1.67 0-2.85.6-1.19.57-1.94 1.6-.75 1.05-1.12 2.44-.34 1.4-.34 3m42.35 16.38q-3.9 0-7-1.12a16 16 0 0 1-5.25-3.1 13.7 13.7 0 0 1-4.36-10.13v-1.04q0-3.3 1.03-6.1a13.4 13.4 0 0 1 7.91-8.03 18 18 0 0 1 6.64-1.15q3.49 0 6.21 1.04 2.73 1.02 4.61 2.93a12 12 0 0 1 2.85 4.56q1 2.65 1 5.96v3.5h-26.43v-5.5h17.16v-.65q0-1.56-.64-2.74a4 4 0 0 0-1.82-1.8 6 6 0 0 0-3-.66q-1.73 0-2.88.66a5 5 0 0 0-1.85 1.86q-.66 1.17-.97 2.76-.3 1.56-.3 3.36v1.04q0 1.73.51 3.14a6.6 6.6 0 0 0 3.94 4.02q1.43.57 3.25.57 2.25 0 4.27-.76a9 9 0 0 0 3.52-2.46l4.42 4.56q-1 1.31-2.81 2.54a16 16 0 0 1-4.31 1.97q-2.52.77-5.7.77m51.08-7.6v-12.68q0-1.35-.46-2.3a3.4 3.4 0 0 0-1.42-1.5 5 5 0 0 0-2.52-.55q-1.3 0-2.27.41a3.3 3.3 0 0 0-1.46 1.18 3.5 3.5 0 0 0-.48 1.88h-9.46q0-2 1-3.71a10 10 0 0 1 2.85-3.04 14 14 0 0 1 4.49-2.02q2.61-.74 5.85-.74 3.85 0 6.85 1.18a10.5 10.5 0 0 1 4.79 3.47 9.3 9.3 0 0 1 1.76 5.8V117q0 2.69.33 4.21.36 1.5 1.03 2.63v.46h-9.55q-.67-1.28-1-3.17a23 23 0 0 1-.33-3.88m1.18-10.99.06 4.7h-4.7q-1.58 0-2.72.36-1.13.36-1.82.98-.7.6-1.03 1.42-.3.8-.3 1.75 0 .9.48 1.64.49.72 1.33 1.12t1.97.41q1.85 0 3.15-.65a6 6 0 0 0 2.07-1.59q.72-.96.72-1.78l2.28 3.56q-.55 1.09-1.34 2.27-.78 1.14-2 2.16-1.2.98-2.94 1.6-1.7.64-4.09.64-3.1 0-5.6-1.12a10.3 10.3 0 0 1-4.04-3.15 7.5 7.5 0 0 1-1.49-4.59q0-2.32.94-4.12a8 8 0 0 1 2.82-3.07 14 14 0 0 1 4.8-1.88q2.87-.66 6.72-.66zm24.04-5.85v35.26h-9.46V94.73h8.82zm20.46 8.78v.57a21 21 0 0 1-.82 5.99 14 14 0 0 1-2.45 4.78 11 11 0 0 1-3.97 3.2q-2.36 1.11-5.49 1.12-2.97 0-5.15-1.12a11 11 0 0 1-3.64-3.17 19 19 0 0 1-2.37-4.68 37 37 0 0 1-1.36-5.66v-1.11q.48-3.2 1.4-5.94.9-2.74 2.36-4.72a10 10 0 0 1 3.6-3.15 11 11 0 0 1 5.13-1.12q3.09 0 5.49 1.07 2.4 1.06 4 3.06a13 13 0 0 1 2.45 4.73q.82 2.76.82 6.15m-9.49.57v-.57q0-1.8-.3-3.31a8 8 0 0 0-.97-2.65 5 5 0 0 0-1.76-1.78 5.3 5.3 0 0 0-2.67-.63 8 8 0 0 0-2.88.5q-1.17.48-1.9 1.44a6 6 0 0 0-1.07 2.3q-.3 1.37-.33 3.11v3.01q.03 2.06.64 3.66a5.3 5.3 0 0 0 1.97 2.5q1.36.86 3.63.87 1.62 0 2.67-.63a4.7 4.7 0 0 0 1.73-1.83q.66-1.18.94-2.71.3-1.53.3-3.28m24.01-9.35v35.26h-9.46V94.73h8.83zm20.46 8.78v.57q0 3.23-.82 5.99a14 14 0 0 1-2.45 4.78 11 11 0 0 1-3.97 3.2q-2.36 1.11-5.49 1.12-2.97 0-5.15-1.12a11 11 0 0 1-3.64-3.17 19 19 0 0 1-2.36-4.68 36 36 0 0 1-1.37-5.66v-1.11q.48-3.2 1.4-5.94t2.36-4.72a10 10 0 0 1 3.6-3.15 11 11 0 0 1 5.13-1.12q3.1 0 5.49 1.07 2.4 1.06 4 3.06a13 13 0 0 1 2.45 4.73q.82 2.76.82 6.15m-9.49.57v-.57q0-1.8-.3-3.31a8 8 0 0 0-.97-2.65 5 5 0 0 0-1.76-1.78 5 5 0 0 0-2.66-.63 8 8 0 0 0-2.88.5q-1.2.48-1.91 1.44a6 6 0 0 0-1.07 2.3q-.3 1.37-.33 3.11v3.01q.03 2.06.64 3.66a5.3 5.3 0 0 0 1.97 2.5q1.36.86 3.64.87 1.6 0 2.66-.63a4.7 4.7 0 0 0 1.73-1.83q.67-1.18.94-2.71.3-1.53.3-3.28m46.66-15.03v5.98H499.9v-5.98zm-15-7.33h9.48v27.63q0 1.23.33 1.9.34.65 1.1.92.75.24 1.93.25a17 17 0 0 0 2.58-.2v6.18q-1.2.36-2.58.55-1.36.21-2.97.22-3.05 0-5.3-.9a7 7 0 0 1-3.4-2.85 10 10 0 0 1-1.18-5.1zm28.79-5.08v41.98h-9.46V82.32zm-1.24 26.16-2.37.05q0-3.12.85-5.71a14 14 0 0 1 2.49-4.57 11.2 11.2 0 0 1 8.85-4.07q2.43 0 4.42.63a9 9 0 0 1 3.46 2 9 9 0 0 1 2.24 3.58q.8 2.21.8 5.38v18.53h-9.53v-18.58a6 6 0 0 0-.6-2.96 3.2 3.2 0 0 0-1.7-1.5 7 7 0 0 0-2.67-.44q-1.84 0-3.06.6-1.21.58-1.91 1.62-.7 1.03-1 2.43-.27 1.4-.27 3m44.29 8.78v-12.68q0-1.35-.46-2.3a3.4 3.4 0 0 0-1.42-1.5 5 5 0 0 0-2.52-.55q-1.3 0-2.27.41a3.3 3.3 0 0 0-1.46 1.18 3.5 3.5 0 0 0-.49 1.88h-9.45q0-2 1-3.71a10 10 0 0 1 2.85-3.04 14 14 0 0 1 4.48-2.02q2.62-.74 5.85-.74 3.85 0 6.86 1.18a10.5 10.5 0 0 1 4.78 3.47 9.3 9.3 0 0 1 1.76 5.8V117q0 2.69.34 4.21.36 1.5 1.03 2.63v.46h-9.55q-.67-1.28-1-3.17a23 23 0 0 1-.34-3.88m1.18-10.99.06 4.7h-4.7q-1.58 0-2.73.36-1.12.36-1.82.98-.69.6-1.03 1.42-.3.8-.3 1.75 0 .9.48 1.64.49.72 1.34 1.12.84.41 1.97.41 1.85 0 3.15-.65a6 6 0 0 0 2.06-1.59q.73-.96.73-1.78l2.27 3.56q-.54 1.09-1.33 2.27-.8 1.14-2 2.16-1.22.98-2.94 1.6-1.7.64-4.1.64-3.1 0-5.6-1.12a10.3 10.3 0 0 1-4.03-3.15 7.5 7.5 0 0 1-1.5-4.59q0-2.32.95-4.12a8 8 0 0 1 2.82-3.07 14 14 0 0 1 4.79-1.88q2.88-.66 6.73-.66zm31.23-11.53v5.98h-19.46v-5.98zm-15-7.33h9.48v27.63q0 1.23.33 1.9.35.65 1.1.92.75.24 1.94.25a17 17 0 0 0 2.57-.2v6.18q-1.2.36-2.57.55-1.36.21-2.97.22-3.07 0-5.3-.9a7 7 0 0 1-3.4-2.85 10 10 0 0 1-1.19-5.1zM12.61 162.9v23.37H3.15V156.7h8.88zm-1.21 7.54-2.4.06q0-3.12.82-5.71a14 14 0 0 1 2.46-4.57q1.61-1.94 3.97-3 2.4-1.07 5.51-1.07 2.19 0 3.98.6 1.78.58 3.06 1.83 1.3 1.23 2 3.23.7 1.97.7 4.73v19.73h-9.46v-18.7q0-1.96-.55-2.97a2.8 2.8 0 0 0-1.51-1.42 7 7 0 0 0-2.4-.39q-1.5 0-2.7.6-1.14.58-1.94 1.62-.79 1.03-1.18 2.43-.36 1.4-.36 3m19.13-.43-3 .22q0-3 .78-5.58.8-2.57 2.37-4.45a11 11 0 0 1 3.9-2.98q2.37-1.07 5.5-1.07 2.3 0 4.18.6a8 8 0 0 1 3.27 1.94q1.4 1.34 2.15 3.53.75 2.15.76 5.3v18.75h-9.52v-18.75q0-1.95-.54-2.95a2.8 2.8 0 0 0-1.52-1.4 6 6 0 0 0-2.33-.38q-1.52 0-2.64.58-1.12.54-1.88 1.53-.75.95-1.12 2.27a11 11 0 0 0-.36 2.84m43.62 9.21v-12.68q0-1.34-.46-2.3a3.4 3.4 0 0 0-1.42-1.5 5 5 0 0 0-2.52-.55q-1.3 0-2.27.41-.94.42-1.46 1.18a3.5 3.5 0 0 0-.48 1.88h-9.46q0-2 1-3.71a10 10 0 0 1 2.85-3.04 14 14 0 0 1 4.49-2.02q2.6-.75 5.85-.74 3.84 0 6.85 1.18a10.5 10.5 0 0 1 4.79 3.47 9.3 9.3 0 0 1 1.75 5.8v12.37q0 2.69.34 4.21.36 1.5 1.03 2.63v.46h-9.55q-.67-1.29-1-3.17a23 23 0 0 1-.33-3.88m1.18-10.99.06 4.7h-4.7a9 9 0 0 0-2.73.36q-1.12.35-1.82.98-.69.6-1.03 1.42-.3.8-.3 1.75 0 .9.48 1.64.49.71 1.34 1.12.84.42 1.97.41 1.85 0 3.15-.65a6 6 0 0 0 2.06-1.59q.73-.96.73-1.78l2.27 3.56q-.54 1.09-1.33 2.27-.8 1.14-2 2.16-1.2.98-2.94 1.6-1.7.64-4.1.64-3.08 0-5.6-1.12a10.3 10.3 0 0 1-4.03-3.15 7.5 7.5 0 0 1-1.49-4.59q0-2.32.94-4.13a8 8 0 0 1 2.82-3.06 14 14 0 0 1 4.79-1.88q2.88-.66 6.73-.66zm24.07-23.97v42h-9.5v-42zm20.82 12.44-14.28 14.87-7.54 6.83-3.8-5.77 6.13-7.13 8.1-8.8zm-10 29.57-9.25-13.58 6.8-4.79 13.3 18.37zm28.1.55q-3.9 0-7-1.12a16 16 0 0 1-5.25-3.1 13.7 13.7 0 0 1-4.36-10.13v-1.04q0-3.3 1.03-6.1a13.4 13.4 0 0 1 7.91-8.03 18 18 0 0 1 6.64-1.15q3.49 0 6.21 1.04 2.73 1.01 4.61 2.92a12 12 0 0 1 2.85 4.57q1 2.65 1 5.96v3.5h-26.43v-5.5h17.15V168q0-1.56-.63-2.74a4 4 0 0 0-1.82-1.8 6 6 0 0 0-3-.66q-1.73 0-2.88.66a5 5 0 0 0-1.85 1.86 9 9 0 0 0-.97 2.76q-.3 1.56-.3 3.36v1.04q0 1.73.51 3.14a6.6 6.6 0 0 0 3.94 4.02q1.42.57 3.25.57 2.25 0 4.27-.76a9 9 0 0 0 3.52-2.46l4.42 4.56q-.99 1.31-2.82 2.54-1.78 1.2-4.3 1.97t-5.7.77m35.71-8.79q0-.81-.58-1.45a5 5 0 0 0-2-1.14q-1.43-.53-4.03-1.04a32 32 0 0 1-4.58-1.2 17 17 0 0 1-3.7-1.84 8 8 0 0 1-2.45-2.56q-.88-1.5-.88-3.42 0-1.86.88-3.53a9 9 0 0 1 2.6-2.95 13 13 0 0 1 4.19-2.02q2.49-.75 5.64-.74 4.33 0 7.48 1.23 3.15 1.2 4.86 3.39a7.8 7.8 0 0 1 1.7 4.95h-9.47q0-1.15-.48-2a3.2 3.2 0 0 0-1.49-1.31 6 6 0 0 0-2.63-.5q-1.27 0-2.25.42-.94.37-1.48 1.06a2.6 2.6 0 0 0-.21 2.74q.33.49 1 .93.7.41 1.78.73 1.13.33 2.73.63 3.43.58 6.25 1.62 2.84 1.03 4.55 2.87a6.8 6.8 0 0 1 1.72 4.83 7 7 0 0 1-1 3.61 9 9 0 0 1-2.82 2.87 15 15 0 0 1-4.42 1.91q-2.58.69-5.82.69-4.65 0-7.85-1.5-3.22-1.5-4.85-3.78a8 8 0 0 1-1.61-4.7h8.88q.06 1.48.82 2.4a4.6 4.6 0 0 0 2.03 1.37q1.25.4 2.79.41t2.58-.38q1.02-.38 1.57-1.04.55-.68.55-1.56m39.86-21.34v29.57h-9.49V156.7zm-10.06-7.65q0-1.86 1.45-3.04a5.8 5.8 0 0 1 3.82-1.2q2.37 0 3.82 1.2a3.7 3.7 0 0 1 1.49 3.04q0 1.83-1.49 3.03a6 6 0 0 1-3.82 1.17q-2.37 0-3.82-1.17a3.8 3.8 0 0 1-1.45-3.03m33.55 7.65v5.98h-19.46v-5.98zm-15-7.33h9.49V177q0 1.23.33 1.89t1.1.93q.75.25 1.93.25a17 17 0 0 0 2.58-.2v6.18a18 18 0 0 1-2.58.55q-1.36.22-2.97.22-3.06 0-5.3-.9a7 7 0 0 1-3.4-2.85 10 10 0 0 1-1.18-5.1zm50.47 37.45q-3.9 0-7-1.12a16 16 0 0 1-5.25-3.1 13.7 13.7 0 0 1-4.36-10.13v-1.04q0-3.3 1.03-6.1a13.4 13.4 0 0 1 7.91-8.03 18 18 0 0 1 6.64-1.15q3.49 0 6.21 1.04a12.3 12.3 0 0 1 7.46 7.49q1 2.65 1 5.96v3.5h-26.43v-5.5h17.15V168q0-1.56-.63-2.74a4 4 0 0 0-1.82-1.8 6 6 0 0 0-3-.66q-1.72 0-2.88.66a5 5 0 0 0-1.85 1.86 9 9 0 0 0-.97 2.76q-.3 1.56-.3 3.36v1.04q0 1.73.51 3.14a6.6 6.6 0 0 0 3.94 4.02q1.42.57 3.25.57 2.25 0 4.27-.76a9 9 0 0 0 3.52-2.46l4.42 4.56q-1 1.31-2.82 2.54-1.78 1.2-4.3 1.97t-5.7.77m35.62-7.61v-12.68q0-1.34-.46-2.3a3.4 3.4 0 0 0-1.42-1.5 5 5 0 0 0-2.52-.55 6 6 0 0 0-2.27.41q-.94.42-1.46 1.18a3.5 3.5 0 0 0-.48 1.88h-9.46q0-2 1-3.71a10 10 0 0 1 2.85-3.04 14 14 0 0 1 4.49-2.02q2.61-.75 5.85-.74 3.85 0 6.85 1.18a10.5 10.5 0 0 1 4.79 3.47 9.3 9.3 0 0 1 1.76 5.8v12.37q0 2.69.33 4.21.36 1.5 1.03 2.63v.46h-9.55q-.66-1.29-1-3.17a23 23 0 0 1-.33-3.88m1.18-10.99.06 4.7h-4.7a9 9 0 0 0-2.73.36q-1.12.35-1.81.98-.7.6-1.04 1.42-.3.8-.3 1.75 0 .9.49 1.64.48.71 1.33 1.12t1.97.41q1.84 0 3.15-.65a6 6 0 0 0 2.06-1.59q.73-.96.73-1.78l2.27 3.56q-.54 1.09-1.33 2.27-.79 1.14-2 2.16-1.2.98-2.94 1.6-1.7.64-4.1.64-3.08 0-5.6-1.12a10.3 10.3 0 0 1-4.03-3.15 7.5 7.5 0 0 1-1.49-4.59q0-2.32.94-4.13a8 8 0 0 1 2.82-3.06 14 14 0 0 1 4.8-1.88q2.87-.66 6.72-.66zm32.01 9.81q0-.81-.58-1.45a5 5 0 0 0-2-1.14q-1.42-.53-4.03-1.04a32 32 0 0 1-4.57-1.2 17 17 0 0 1-3.7-1.84 8 8 0 0 1-2.46-2.56q-.87-1.5-.88-3.42 0-1.86.88-3.53a9 9 0 0 1 2.6-2.95 13 13 0 0 1 4.2-2.02q2.48-.75 5.63-.74 4.33 0 7.49 1.23 3.15 1.2 4.85 3.39a7.8 7.8 0 0 1 1.7 4.95h-9.46q0-1.15-.49-2a3.2 3.2 0 0 0-1.48-1.31 6 6 0 0 0-2.64-.5q-1.28 0-2.24.42-.94.37-1.49 1.06a2.6 2.6 0 0 0-.21 2.74q.33.49 1 .93.7.41 1.79.73 1.13.33 2.73.63 3.42.58 6.24 1.62 2.85 1.03 4.55 2.87a6.8 6.8 0 0 1 1.73 4.83 7 7 0 0 1-1 3.61 9 9 0 0 1-2.82 2.87q-1.86 1.23-4.43 1.91-2.58.69-5.82.69-4.64 0-7.85-1.5t-4.85-3.78a8 8 0 0 1-1.6-4.7h8.87q.06 1.48.82 2.4.79.94 2.03 1.37 1.24.4 2.8.41 1.53 0 2.57-.38t1.57-1.04q.55-.68.55-1.56m24.4-21.34v29.57h-9.49V156.7zM356 149.05q0-1.86 1.45-3.04a5.8 5.8 0 0 1 3.82-1.2q2.37 0 3.82 1.2a3.7 3.7 0 0 1 1.49 3.04q0 1.83-1.49 3.03a6 6 0 0 1-3.82 1.17q-2.36 0-3.82-1.17a3.8 3.8 0 0 1-1.45-3.03m32.34 37.77q-3.9 0-7-1.12a16 16 0 0 1-5.24-3.1 13.7 13.7 0 0 1-4.37-10.13v-1.04q0-3.3 1.03-6.1a13.4 13.4 0 0 1 7.91-8.03 18 18 0 0 1 6.64-1.15q3.5 0 6.22 1.04a12.3 12.3 0 0 1 7.46 7.49q1 2.65 1 5.96v3.5h-26.44v-5.5h17.16V168q0-1.56-.64-2.74a4 4 0 0 0-1.82-1.8 6 6 0 0 0-3-.66q-1.73 0-2.88.66a5 5 0 0 0-1.85 1.86q-.66 1.17-.97 2.76-.3 1.56-.3 3.36v1.04q0 1.73.51 3.14a6.6 6.6 0 0 0 3.95 4.02q1.42.57 3.24.57 2.25 0 4.27-.76a9 9 0 0 0 3.52-2.46l4.43 4.56q-1 1.31-2.82 2.54-1.8 1.2-4.3 1.97-2.53.77-5.7.77m27.73-23.24v22.68h-9.46V156.7h8.88zm9.8-7.11-.16 7.95q-.6-.08-1.58-.13-.96-.09-1.66-.09-1.83 0-3.16.41-1.3.39-2.18 1.15a5 5 0 0 0-1.27 1.91 7 7 0 0 0-.43 2.6l-1.79-.8q0-2.91.64-5.35a13 13 0 0 1 1.85-4.2q1.2-1.8 2.97-2.8a8 8 0 0 1 4-.98q.73 0 1.49.08t1.27.25M11.6 252.97q-.23 0-.43-.08a1 1 0 0 1-.36-.22l-4.7-4.24a1 1 0 0 1-.25-.32.9.9 0 0 1 .23-1.1 1 1 0 0 1 .8-.3q.22 0 .42.08.21.09.36.23l3.92 3.53 7.06-6.36a1.2 1.2 0 0 1 1.57 0q.31.3.32.7 0 .42-.32.72l-7.84 7.06q-.16.15-.36.22t-.43.08m35.7.73v1.54h-8.35v-1.54zm-7.93-12.68v14.22h-2.09v-14.22zm6.82 6.11v1.54h-7.24v-1.54zm1-6.1v1.54h-8.24v-1.55zm9.22 11.4q0-.39-.2-.72-.18-.34-.77-.61a7 7 0 0 0-1.73-.5q-.97-.17-1.77-.43a6 6 0 0 1-1.33-.62 3 3 0 0 1-.83-.84q-.3-.5-.3-1.15 0-.61.3-1.18.33-.56.89-.98.57-.44 1.37-.68a6 6 0 0 1 1.79-.24q1.41 0 2.4.45t1.53 1.2.53 1.65h-2q0-.45-.3-.85a2 2 0 0 0-.83-.7q-.54-.27-1.33-.27-.84 0-1.36.24a1.7 1.7 0 0 0-.74.57 1.4 1.4 0 0 0-.12 1.27q.12.23.4.42.3.19.83.35t1.35.33q1.45.3 2.38.7.93.42 1.38 1.01t.46 1.45q0 .69-.33 1.27-.3.57-.92 1-.6.4-1.43.64-.82.22-1.85.22a6 6 0 0 1-2.62-.5 4 4 0 0 1-1.62-1.29 3 3 0 0 1-.55-1.66h2q.06.73.48 1.18.44.43 1.07.61a4.6 4.6 0 0 0 2.62-.02q.56-.19.85-.53.3-.35.3-.79m9.53-7.76v1.39H59.6v-1.39zm-4.19-2.56h2v10.5q0 .55.19.82.18.27.47.36.3.09.63.09a4 4 0 0 0 .94-.12l.02 1.48-.63.12q-.39.07-.92.07-.74 0-1.36-.26a2 2 0 0 1-.98-.88 3.4 3.4 0 0 1-.36-1.68zm16.9 13.32a6 6 0 0 1-2.22-.37 4.7 4.7 0 0 1-2.78-2.68 5 5 0 0 1-.38-2.06v-.4q0-1.3.42-2.3a5.1 5.1 0 0 1 4.7-3.14q1.26 0 2.17.39a4 4 0 0 1 1.5 1.1q.6.68.87 1.63.28.94.28 2.05v.81h-8.75V249h6.75v-.14a4 4 0 0 0-.33-1.36q-.27-.67-.86-1.1-.6-.43-1.63-.43-.68 0-1.25.27-.58.25-.99.76-.41.5-.64 1.24a6 6 0 0 0-.23 1.69v.4q0 .75.23 1.42t.68 1.15q.45.5 1.1.78.64.3 1.47.29a3.8 3.8 0 0 0 3.08-1.44l1.22.87q-.39.52-.97.99-.59.46-1.44.76-.84.3-2 .29m11.8-10.77v1.39h-6.33v-1.39zm-4.19-2.56h2v10.5q0 .55.19.82.18.27.48.36.29.09.62.09a4 4 0 0 0 .94-.12l.02 1.48-.63.12q-.38.07-.92.07-.74 0-1.36-.26a2 2 0 0 1-.98-.88 3.4 3.4 0 0 1-.36-1.68zm14.22 2.56v10.57h-2.02v-10.57zm-2.17-2.8q0-.44.3-.74t.88-.3.88.3.31.74q0 .42-.31.72-.3.3-.88.3t-.89-.3a1 1 0 0 1-.29-.72m7.39 5.06v8.3h-2v-10.56h1.89zm-.48 2.62-.83-.03q0-1.07.35-2t.98-1.6q.62-.69 1.5-1.06a5.3 5.3 0 0 1 3.5-.17 2.9 2.9 0 0 1 1.93 1.86q.25.72.25 1.76v6.93h-2v-6.95q0-.83-.28-1.32a1.6 1.6 0 0 0-.79-.73 3 3 0 0 0-1.28-.24q-.75 0-1.36.28-.6.3-1.05.78a3.8 3.8 0 0 0-.92 2.5m18.23-2.86v12.6h-2.01v-14.63h1.84zm7.9 3.17v.2q0 1.15-.31 2.14-.3.98-.89 1.7-.57.72-1.42 1.12-.84.4-1.94.4a5 5 0 0 1-1.97-.33 4 4 0 0 1-1.45-.97q-.6-.63-.95-1.52a8 8 0 0 1-.47-2v-1.1q.12-1.16.48-2.1.36-.92.94-1.57.6-.67 1.44-1.01a5 5 0 0 1 1.95-.35q1.11 0 1.96.39.86.38 1.44 1.1.59.7.88 1.7.3.99.3 2.2m-2.02.2v-.2q0-.8-.19-1.49a4 4 0 0 0-.57-1.23 2.6 2.6 0 0 0-.97-.84 3 3 0 0 0-1.42-.3q-.76 0-1.32.23-.55.23-.94.63-.4.39-.64.9-.24.5-.36 1.03v2.53q.22.69.6 1.29.4.6 1.05.97.64.36 1.63.36a2.7 2.7 0 0 0 2.37-1.15q.39-.54.57-1.24.2-.7.19-1.49m6.58-9.83v15h-2v-15zm-.48 9.31-.83-.03q0-1.07.36-2 .34-.92.97-1.6t1.5-1.06a5.3 5.3 0 0 1 3.5-.17 2.9 2.9 0 0 1 1.93 1.86q.26.72.26 1.76v6.93h-2.01v-6.95q0-.83-.27-1.32a1.6 1.6 0 0 0-.8-.73 3 3 0 0 0-1.27-.24q-.75 0-1.37.28-.6.3-1.05.78a3.8 3.8 0 0 0-.92 2.5m17.59 3.87v-5.44q0-.62-.28-1.08a2 2 0 0 0-.82-.72 3 3 0 0 0-1.36-.26q-.75 0-1.33.24a2.3 2.3 0 0 0-.9.61q-.3.39-.3.82h-2q0-.56.32-1.12.32-.55.93-1 .6-.46 1.47-.73a6 6 0 0 1 1.93-.27q1.28 0 2.25.39a3.3 3.3 0 0 1 1.54 1.18q.56.78.56 1.96v4.92q0 .53.1 1.12t.31 1.03v.16h-2.09q-.15-.31-.24-.84a6 6 0 0 1-.08-.97m.35-4.6.02 1.27h-2.02q-.85 0-1.53.13-.66.12-1.12.36t-.7.61-.23.85q0 .5.24.91.25.41.75.66.51.23 1.25.23a3.6 3.6 0 0 0 2.74-1.21q.42-.51.45-.99l.86.87q-.09.41-.41.9-.34.5-.9.97-.56.45-1.32.75t-1.72.29a5 5 0 0 1-2.09-.42 3.5 3.5 0 0 1-1.38-1.12q-.5-.71-.49-1.6a3 3 0 0 1 1.43-2.57q.7-.44 1.67-.66a10 10 0 0 1 2.18-.23zm6.8-2.5v8.9h-2v-10.56h1.95zm3.66-1.72v1.68l-.49-.05-.5-.02q-.69 0-1.22.2a2.6 2.6 0 0 0-1.48 1.38 4 4 0 0 0-.27 1.05l-.56.3q0-.96.2-1.8.23-.85.66-1.48.44-.66 1.13-1.02a3.4 3.4 0 0 1 2.53-.23m6.5 10.81a6 6 0 0 1-2.22-.37 4.7 4.7 0 0 1-2.78-2.68 5 5 0 0 1-.38-2.06v-.4q0-1.3.42-2.3a5.1 5.1 0 0 1 4.7-3.14q1.25 0 2.16.39a4 4 0 0 1 1.5 1.1q.6.68.87 1.63.29.94.28 2.05v.81h-8.74V249h6.74v-.14a4 4 0 0 0-.32-1.36q-.27-.67-.87-1.1t-1.62-.43q-.69 0-1.26.27-.57.25-.98.76a4 4 0 0 0-.64 1.24 6 6 0 0 0-.23 1.69v.4q0 .75.23 1.42t.68 1.15q.45.5 1.1.78.65.3 1.47.29a3.8 3.8 0 0 0 3.08-1.44l1.21.87q-.37.52-.96.99-.58.46-1.44.76-.84.3-2 .29m11.8-10.77v1.39h-6.34v-1.39zm-4.2-2.56h2.01v10.5q0 .55.19.82.18.27.47.36.3.09.63.09a4 4 0 0 0 .94-.12l.01 1.48-.63.12q-.38.07-.92.07-.74 0-1.35-.26a2 2 0 0 1-.99-.88 3.4 3.4 0 0 1-.35-1.68zm8.55 4.22v8.9h-2v-10.56h1.95zm3.66-1.72-.01 1.68-.48-.05-.5-.02q-.7 0-1.22.2a2.6 2.6 0 0 0-1.48 1.38 4 4 0 0 0-.27 1.05l-.57.3q0-.96.2-1.8.22-.85.67-1.48.44-.66 1.13-1.02a3.4 3.4 0 0 1 2.53-.23m8.32 8.81v-5.44q0-.62-.28-1.08a2 2 0 0 0-.82-.72 3 3 0 0 0-1.36-.26q-.75 0-1.34.24a2 2 0 0 0-.88.61q-.32.39-.32.82h-2q0-.56.33-1.12.31-.55.93-1 .6-.46 1.47-.73a6 6 0 0 1 1.92-.27q1.28 0 2.26.39a3.3 3.3 0 0 1 1.53 1.18q.57.78.57 1.96v4.92q0 .53.1 1.12t.3 1.03v.16h-2.08q-.15-.31-.24-.84a6 6 0 0 1-.09-.97m.35-4.6.02 1.27h-2.02q-.86 0-1.53.13-.67.12-1.12.36t-.7.61a1.7 1.7 0 0 0 .01 1.76q.25.41.75.66.5.23 1.25.23a3.6 3.6 0 0 0 2.73-1.21q.43-.51.46-.99l.85.87q-.07.41-.4.9-.34.5-.9.97-.55.45-1.33.75-.75.3-1.7.29a5 5 0 0 1-2.1-.42 3.5 3.5 0 0 1-1.38-1.12q-.5-.71-.49-1.6a3 3 0 0 1 1.43-2.57q.7-.44 1.67-.66a10 10 0 0 1 2.17-.23zm12.3-2.06v8.47h-2.01v-10.57h1.9zm-.41 2.78-.93-.03q0-1.07.31-2 .3-.92.9-1.6t1.48-1.06a5 5 0 0 1 2.06-.38q.82 0 1.52.21.69.21 1.2.66.5.45.79 1.15.28.7.28 1.7v7.04h-2v-6.96q0-.83-.32-1.32-.3-.5-.86-.72a3 3 0 0 0-1.33-.24q-.88 0-1.48.28-.6.3-.95.78-.36.5-.52 1.15-.15.63-.15 1.34m7.59-1-1.34.38q0-.87.3-1.67.33-.8.9-1.42.6-.63 1.47-.99a5 5 0 0 1 1.98-.37q.94 0 1.67.22.74.22 1.23.7.51.45.77 1.18.26.72.26 1.71v6.95h-2.01v-6.96q0-.9-.32-1.38a1.6 1.6 0 0 0-.86-.7 3.8 3.8 0 0 0-2.5 0 2.4 2.4 0 0 0-1.38 1.38q-.17.45-.17.98m17.18 4.87v-5.44q0-.62-.28-1.08a2 2 0 0 0-.83-.72 3 3 0 0 0-1.36-.26q-.75 0-1.33.24a2 2 0 0 0-.89.61q-.3.39-.31.82h-2q0-.56.32-1.12.33-.55.93-1 .62-.46 1.47-.73a6 6 0 0 1 1.93-.27q1.27 0 2.25.39a3.3 3.3 0 0 1 1.54 1.18q.56.78.56 1.96v4.92q0 .53.1 1.12t.31 1.03v.16h-2.09q-.15-.31-.24-.84a6 6 0 0 1-.08-.97m.34-4.6.03 1.27h-2.03q-.85 0-1.53.13-.66.12-1.12.36-.45.24-.7.61-.23.37-.23.85 0 .5.25.91.24.41.74.66.51.23 1.25.23a3.6 3.6 0 0 0 2.74-1.21q.42-.51.45-.99l.86.87q-.08.41-.41.9-.34.5-.9.97-.56.45-1.32.75t-1.71.29a5 5 0 0 1-2.1-.42 3.5 3.5 0 0 1-1.38-1.12q-.48-.71-.48-1.6a3 3 0 0 1 1.42-2.57q.7-.44 1.67-.66a10 10 0 0 1 2.18-.23zm12.4-4.16h1.82v10.34q0 1.4-.63 2.38-.63.99-1.75 1.5a6 6 0 0 1-4 .34 6 6 0 0 1-1.61-.58 4 4 0 0 1-1.31-1.08l1.05-1.08a4.2 4.2 0 0 0 4.78 1.1 2.4 2.4 0 0 0 1.08-.95q.39-.63.39-1.54V247zm-8.06 5.4v-.2q0-1.21.3-2.2.33-1 .93-1.7.6-.72 1.46-1.1a5 5 0 0 1 1.93-.4q1.1 0 1.93.36.83.34 1.4 1 .6.66.92 1.59.34.92.47 2.1v.9a8 8 0 0 1-.47 2.08 5 5 0 0 1-.92 1.58q-.57.66-1.4 1a5 5 0 0 1-3.86-.05 4 4 0 0 1-1.45-1.12 5 5 0 0 1-.93-1.7 7 7 0 0 1-.31-2.14m2-.2v.2q0 .79.17 1.49.18.69.55 1.22a2.7 2.7 0 0 0 2.36 1.12q1 0 1.65-.38.65-.4 1.03-1 .39-.64.6-1.37v-2.35a5 5 0 0 0-.37-1.03 3.2 3.2 0 0 0-1.56-1.53 3 3 0 0 0-1.32-.24 3 3 0 0 0-1.42.31q-.59.3-.97.84-.37.53-.55 1.23-.17.7-.17 1.49m12.92-2.94v8.3h-2v-10.56h1.9zm-.47 2.62-.84-.03q.01-1.07.36-2t.98-1.6q.62-.69 1.49-1.06a5.3 5.3 0 0 1 3.5-.17 2.9 2.9 0 0 1 1.94 1.86q.25.72.25 1.76v6.93h-2v-6.95q0-.83-.28-1.32a1.6 1.6 0 0 0-.79-.73 3 3 0 0 0-1.28-.24q-.75 0-1.36.28-.6.3-1.05.78a3.8 3.8 0 0 0-.92 2.5m17.63 3.87v-5.44q0-.62-.28-1.08a2 2 0 0 0-.82-.72 3 3 0 0 0-1.37-.26q-.75 0-1.33.24a2 2 0 0 0-.88.61q-.32.39-.32.82h-2q0-.56.32-1.12.33-.55.94-1 .6-.46 1.47-.73a6 6 0 0 1 1.92-.27q1.28 0 2.26.39a3.3 3.3 0 0 1 1.53 1.18q.57.78.57 1.96v4.92q0 .53.1 1.12t.3 1.03v.16h-2.08q-.15-.31-.24-.84a6 6 0 0 1-.09-.97m.35-4.6.02 1.27h-2.02q-.86 0-1.53.13-.67.12-1.12.36t-.7.61a1.7 1.7 0 0 0 .01 1.76q.26.41.75.66.5.23 1.25.23a4 4 0 0 0 1.62-.35q.7-.36 1.11-.86.43-.51.46-.99l.85.87q-.07.41-.4.9-.35.5-.9.97-.55.45-1.33.75-.75.3-1.7.29-1.2 0-2.1-.42a3.5 3.5 0 0 1-1.38-1.12q-.5-.71-.49-1.6 0-.84.37-1.49t1.06-1.08 1.67-.66a10 10 0 0 1 2.17-.23zm17.21 4.6v-5.44q0-.62-.28-1.08a2 2 0 0 0-.82-.72 3 3 0 0 0-1.37-.26q-.75 0-1.33.24a2 2 0 0 0-.88.61q-.32.39-.32.82h-2q0-.56.32-1.12.33-.55.94-1 .6-.46 1.47-.73a6 6 0 0 1 1.92-.27q1.28 0 2.26.39a3.3 3.3 0 0 1 1.53 1.18q.57.78.57 1.96v4.92q0 .53.1 1.12t.3 1.03v.16h-2.08q-.15-.31-.24-.84a6 6 0 0 1-.09-.97m.35-4.6.02 1.27h-2.02q-.85 0-1.53.13-.67.12-1.12.36t-.7.61a1.7 1.7 0 0 0 .01 1.76q.26.41.75.66.5.23 1.25.23a4 4 0 0 0 1.62-.35q.7-.36 1.11-.86.43-.51.46-.99l.85.87q-.07.41-.4.9-.35.5-.9.97-.55.45-1.33.75-.75.3-1.7.29-1.2 0-2.1-.42a3.5 3.5 0 0 1-1.38-1.12q-.5-.71-.49-1.6 0-.84.37-1.49t1.06-1.08 1.67-.66a10 10 0 0 1 2.17-.23zm12.19 4.36v-12.95h2.01v15h-1.84zm-7.88-3.12v-.2q0-1.21.32-2.2.34-1 .95-1.7.61-.72 1.46-1.1.85-.4 1.9-.4 1.1 0 1.93.36.84.34 1.4 1 .6.66.93 1.59.34.92.46 2.1v.9a8 8 0 0 1-.46 2.08 5 5 0 0 1-.92 1.58q-.58.66-1.41 1a5 5 0 0 1-3.83-.05 4 4 0 0 1-1.46-1.12 5 5 0 0 1-.95-1.7 7 7 0 0 1-.32-2.14m2.01-.2v.2q0 .79.18 1.49.18.69.56 1.22a2.7 2.7 0 0 0 2.36 1.12q.99 0 1.63-.38.66-.4 1.04-1 .39-.64.6-1.37v-2.35q-.12-.54-.37-1.03a3 3 0 0 0-1.57-1.53q-.55-.24-1.3-.24a3 3 0 0 0-1.43.31q-.58.3-.96.84-.38.53-.56 1.23t-.18 1.49m13.18-5.2v10.57h-2.02v-10.57zm-2.17-2.8q0-.44.3-.74t.88-.3.88.3.31.74q0 .42-.31.72-.3.3-.88.3t-.88-.3a1 1 0 0 1-.3-.72m7.39 4.83v12.6h-2.02v-14.63h1.84zm7.89 3.17v.2q0 1.15-.3 2.14-.3.98-.9 1.7-.56.72-1.41 1.12t-1.94.4a5 5 0 0 1-1.97-.33 4 4 0 0 1-1.45-.97q-.6-.63-.95-1.52a8 8 0 0 1-.48-2v-1.1q.13-1.16.49-2.1a5 5 0 0 1 .94-1.57q.6-.67 1.44-1.01a5 5 0 0 1 1.95-.35q1.1 0 1.96.39.86.38 1.44 1.1.58.7.88 1.7.3.99.3 2.2m-2.01.2v-.2q0-.8-.19-1.49a4 4 0 0 0-.57-1.23 2.6 2.6 0 0 0-.98-.84 3 3 0 0 0-1.42-.3q-.75 0-1.32.23-.55.23-.94.63-.39.39-.64.9-.24.5-.35 1.03v2.53q.21.69.6 1.29.38.6 1.04.97.65.36 1.64.36a2.7 2.7 0 0 0 2.37-1.15q.39-.54.57-1.24.19-.7.19-1.49m6.74-5.4v10.57h-2.01v-10.57zm-2.17-2.8q0-.44.3-.74t.88-.3.88.3.31.74q0 .42-.3.72-.31.3-.89.3-.57 0-.88-.3a1 1 0 0 1-.3-.72m12.2 10.56q0-.39-.19-.72-.18-.34-.77-.61a7 7 0 0 0-1.73-.5q-.98-.17-1.76-.43a6 6 0 0 1-1.34-.62 3 3 0 0 1-.83-.84q-.3-.5-.3-1.15 0-.61.31-1.18t.88-.98a4 4 0 0 1 1.37-.68 6 6 0 0 1 1.79-.24q1.41 0 2.4.45 1 .45 1.53 1.2.53.74.53 1.65h-2q0-.45-.3-.85a2 2 0 0 0-.83-.7q-.54-.27-1.33-.27-.83 0-1.35.24t-.75.57a1.3 1.3 0 0 0-.12 1.27q.12.23.41.42.3.19.82.35.53.16 1.36.33 1.44.3 2.37.7.93.42 1.38 1.01.46.6.46 1.45 0 .69-.33 1.27-.3.57-.92 1-.6.4-1.43.64-.81.22-1.85.22a6 6 0 0 1-2.62-.5 4 4 0 0 1-1.62-1.29 3 3 0 0 1-.55-1.66h2.01q.04.73.48 1.18.43.43 1.06.61a4.6 4.6 0 0 0 2.62-.02q.56-.19.85-.53.3-.35.3-.79m9.32 1.52q.7 0 1.32-.27.6-.25 1-.72.38-.47.44-1.06h1.9q-.05.93-.7 1.74a5 5 0 0 1-1.68 1.3 5 5 0 0 1-2.28.49q-1.32 0-2.3-.42a4.5 4.5 0 0 1-2.6-2.83 7 7 0 0 1-.31-2.02v-.41q0-1.07.31-2.01.33-.96.97-1.69.65-.73 1.62-1.15a6 6 0 0 1 2.3-.42q1.38 0 2.41.5a4 4 0 0 1 1.61 1.37q.6.87.65 1.96h-1.9a2.5 2.5 0 0 0-1.36-2.02 3 3 0 0 0-1.4-.33q-.93 0-1.55.33t-.99.88q-.35.55-.52 1.22-.15.67-.15 1.36v.4q0 .7.15 1.38.15.66.51 1.22.38.54.99.88.63.31 1.56.32m9.09-9.28v10.57h-2.01v-10.57zm-2.17-2.8q0-.44.3-.74t.89-.3q.57 0 .87.3.32.3.32.74 0 .42-.32.72-.3.3-.87.3-.6 0-.9-.3a1 1 0 0 1-.29-.72m7.39 5.06v8.3h-2v-10.56h1.9zm-.48 2.62-.83-.03q0-1.07.36-2 .34-.92.97-1.6t1.5-1.06a5.3 5.3 0 0 1 3.5-.17 2.9 2.9 0 0 1 1.93 1.86q.26.72.26 1.76v6.93h-2.02v-6.95q0-.83-.26-1.32a1.6 1.6 0 0 0-.8-.73A3 3 0 0 0 364 246q-.75 0-1.37.28-.6.3-1.05.78a3.8 3.8 0 0 0-.92 2.5m18.32-4.89h1.82v10.34q0 1.4-.63 2.38-.63.99-1.75 1.5a6 6 0 0 1-4 .34 6 6 0 0 1-1.61-.58 4 4 0 0 1-1.31-1.08l1.05-1.08a4.2 4.2 0 0 0 4.78 1.1 2.4 2.4 0 0 0 1.08-.95q.39-.63.39-1.54V247zm-8.06 5.4v-.2q0-1.21.3-2.2.33-1 .93-1.7.6-.72 1.46-1.1a5 5 0 0 1 1.93-.4q1.1 0 1.92.36.84.34 1.41 1 .6.66.92 1.59.34.92.47 2.1v.9a8 8 0 0 1-.47 2.08 5 5 0 0 1-.92 1.58q-.57.66-1.4 1a5 5 0 0 1-3.86-.05 4 4 0 0 1-1.45-1.12 5 5 0 0 1-.93-1.7 7 7 0 0 1-.31-2.14m2-.2v.2q0 .79.17 1.49.18.69.55 1.22a2.7 2.7 0 0 0 2.36 1.12q1 0 1.65-.38.65-.4 1.03-1 .39-.64.6-1.37v-2.35a5 5 0 0 0-.36-1.03 3.2 3.2 0 0 0-1.57-1.53 3 3 0 0 0-1.33-.24 3 3 0 0 0-1.41.31q-.59.3-.97.84-.37.53-.55 1.23-.17.7-.17 1.49m15.89.2v-.22q0-1.14.37-2.12a5 5 0 0 1 2.74-2.84q.99-.4 2.2-.41 1.24 0 2.23.4t1.68 1.14 1.08 1.7.36 2.13v.22q0 1.14-.36 2.12a4.95 4.95 0 0 1-4.96 3.24q-1.23 0-2.22-.4a5 5 0 0 1-1.69-1.13 5 5 0 0 1-1.06-1.71 6 6 0 0 1-.37-2.12m2-.22v.22q0 .8.2 1.5.22.7.63 1.22a3 3 0 0 0 2.5 1.16q.84 0 1.45-.3.63-.32 1.04-.86.41-.53.61-1.22.22-.7.22-1.5v-.22q0-.78-.22-1.48a4 4 0 0 0-.62-1.24 3 3 0 0 0-1.04-.85q-.62-.32-1.45-.32t-1.45.31-1.04.86q-.41.54-.62 1.24-.2.7-.2 1.48m13.17-3.52v8.9h-2v-10.56h1.94zm3.66-1.72-.01 1.68-.48-.05-.5-.02q-.7 0-1.22.2a2.6 2.6 0 0 0-1.48 1.38 4 4 0 0 0-.27 1.05l-.57.3q0-.96.2-1.8.22-.85.67-1.48.44-.66 1.13-1.02a3.4 3.4 0 0 1 2.53-.23m3.85 2.31v8.3h-2v-10.56h1.9zm-.47 2.62-.84-.03q0-1.07.36-2 .35-.92.97-1.6.63-.69 1.5-1.06a5.3 5.3 0 0 1 3.5-.17 2.9 2.9 0 0 1 1.93 1.86q.26.72.26 1.76v6.93h-2.01v-6.95q0-.83-.27-1.32a1.6 1.6 0 0 0-.8-.73 3 3 0 0 0-1.27-.24q-.75 0-1.36.28-.6.3-1.05.78a3.8 3.8 0 0 0-.92 2.5m17.63 3.87v-5.44q0-.62-.28-1.08a2 2 0 0 0-.82-.72 3 3 0 0 0-1.37-.26q-.75 0-1.33.24a2 2 0 0 0-.89.61q-.3.39-.31.82h-2q0-.56.32-1.12.33-.55.93-1 .61-.46 1.47-.73a6 6 0 0 1 1.93-.27q1.28 0 2.25.39a3.3 3.3 0 0 1 1.54 1.18q.56.78.56 1.96v4.92q0 .53.1 1.12t.32 1.03v.16h-2.1q-.15-.31-.23-.84a6 6 0 0 1-.09-.97m.35-4.6.02 1.27h-2.02q-.85 0-1.53.13-.67.12-1.13.36t-.69.61a1.7 1.7 0 0 0 .01 1.76q.26.41.75.66.5.23 1.24.23a3.6 3.6 0 0 0 1.63-.35q.7-.36 1.11-.86.42-.51.46-.99l.85.87q-.08.41-.41.9t-.9.97q-.55.45-1.32.75-.75.3-1.71.29a5 5 0 0 1-2.09-.42 3.5 3.5 0 0 1-1.38-1.12q-.5-.71-.5-1.6 0-.84.38-1.49.37-.65 1.06-1.08t1.66-.66a10 10 0 0 1 2.18-.23zm6.81-2.5v8.9h-2v-10.56h1.94zm3.66-1.72-.01 1.68-.48-.05-.5-.02q-.7 0-1.22.2a2.6 2.6 0 0 0-1.48 1.38 4 4 0 0 0-.28 1.05l-.56.3q0-.96.2-1.8.22-.85.67-1.48.45-.66 1.12-1.02a3.4 3.4 0 0 1 2.54-.23m6.49 10.81a6 6 0 0 1-2.22-.37 4.7 4.7 0 0 1-2.78-2.68 5 5 0 0 1-.38-2.06v-.4q0-1.3.42-2.3a5.1 5.1 0 0 1 4.7-3.14q1.26 0 2.17.39a4 4 0 0 1 1.5 1.1q.6.68.87 1.63.28.94.28 2.05v.81h-8.75V249h6.75v-.14a4 4 0 0 0-.33-1.36q-.27-.67-.86-1.1-.6-.43-1.63-.43-.68 0-1.25.27-.58.25-.99.76a4 4 0 0 0-.64 1.24 6 6 0 0 0-.22 1.69v.4q0 .75.22 1.42.24.66.69 1.15.45.5 1.09.78.65.3 1.47.29a3.8 3.8 0 0 0 3.09-1.44l1.2.87q-.36.52-.95.99-.6.46-1.44.76-.86.3-2 .29m19.3-2.01v-5.44q0-.62-.29-1.08a2 2 0 0 0-.82-.72 3 3 0 0 0-1.36-.26q-.75 0-1.33.24a2.3 2.3 0 0 0-.9.61q-.3.39-.3.82h-2q0-.56.32-1.12.31-.55.93-1 .6-.46 1.47-.73a6 6 0 0 1 1.93-.27q1.28 0 2.25.39a3.3 3.3 0 0 1 1.54 1.18q.56.78.56 1.96v4.92q0 .53.1 1.12t.31 1.03v.16h-2.09q-.15-.31-.24-.84a6 6 0 0 1-.08-.97m.34-4.6.02 1.27h-2.02q-.85 0-1.53.13-.67.12-1.12.36t-.7.61a1.7 1.7 0 0 0 .01 1.76q.26.41.75.66.51.23 1.25.23a4 4 0 0 0 1.62-.35q.7-.36 1.12-.86.42-.51.45-.99l.86.87q-.09.41-.42.9t-.9.97q-.54.45-1.31.75-.76.3-1.71.29-1.2 0-2.1-.42a3.5 3.5 0 0 1-1.38-1.12q-.49-.71-.49-1.6 0-.84.37-1.49t1.06-1.08 1.67-.66a10 10 0 0 1 2.18-.23zm6.98-8.59v15h-2v-15zm5.4 4.43v10.57h-2.02v-10.57zm-2.17-2.8q0-.44.3-.74t.88-.3.88.3.31.74q0 .42-.31.72-.3.3-.88.3t-.89-.3a1 1 0 0 1-.29-.72m12.75 17.43v-12.6l.18-2.03h1.84v14.63zm-7.87-9.23v-.2q0-1.21.32-2.2.3-1 .92-1.7.6-.72 1.46-1.1a5 5 0 0 1 1.97-.4q1.1 0 1.94.36.84.34 1.43 1t.94 1.59q.34.92.48 2.1v.9a8 8 0 0 1-.47 2.08 5 5 0 0 1-.94 1.58q-.6.66-1.44 1-.85.36-1.96.35-1.08 0-1.95-.4a4 4 0 0 1-1.46-1.12q-.6-.72-.92-1.7a7 7 0 0 1-.32-2.14m2.02-.2v.2q0 .8.18 1.5t.56 1.22q.4.55.98.85.6.3 1.4.3 1 0 1.66-.38.67-.39 1.07-1.03.4-.65.62-1.37v-2.36a4 4 0 0 0-.38-1.04 3 3 0 0 0-.65-.9q-.4-.42-.97-.65a3 3 0 0 0-1.32-.25 2.8 2.8 0 0 0-2.4 1.17q-.39.54-.57 1.24t-.18 1.5m18.25 2.93v-8.13h2.01v10.57h-1.91zm.38-2.23.83-.02q0 1.05-.25 1.95-.23.89-.78 1.54-.54.66-1.41 1.03a6 6 0 0 1-2.14.36q-.85 0-1.57-.22a3 3 0 0 1-1.2-.7 3 3 0 0 1-.8-1.22q-.27-.75-.27-1.8v-6.82h2v6.84q0 .71.18 1.18.18.45.48.73.31.27.7.37t.8.1a4 4 0 0 0 2.02-.43q.75-.45 1.07-1.2.34-.76.34-1.7m11.59 2.87v-5.44q0-.62-.28-1.08a2 2 0 0 0-.82-.72 3 3 0 0 0-1.36-.26q-.76 0-1.34.24a2 2 0 0 0-.88.61q-.32.39-.32.82h-2q0-.56.32-1.12.33-.55.94-1 .6-.46 1.47-.73a6 6 0 0 1 1.93-.27q1.28 0 2.25.39a3.3 3.3 0 0 1 1.53 1.18q.57.78.57 1.96v4.92q0 .53.1 1.12t.3 1.03v.16h-2.08q-.15-.31-.24-.84a6 6 0 0 1-.09-.97m.35-4.6.02 1.27h-2.02q-.86 0-1.53.13-.67.12-1.12.36t-.7.61-.24.85q0 .5.25.91.26.41.75.66.5.23 1.25.23a3.6 3.6 0 0 0 2.73-1.21q.43-.51.46-.99l.85.87q-.07.41-.4.9-.34.5-.9.97-.55.45-1.33.75-.75.3-1.7.29a5 5 0 0 1-2.1-.42 3.5 3.5 0 0 1-1.38-1.12q-.5-.71-.49-1.6a3 3 0 0 1 1.43-2.57q.7-.44 1.67-.66a10 10 0 0 1 2.17-.23zm6.8-2.06v8.47h-2.01v-10.57h1.9zm-.41 2.78-.93-.03q0-1.07.31-2 .3-.92.9-1.6t1.48-1.06a5 5 0 0 1 2.06-.38q.82 0 1.51.21t1.2.66.8 1.15.28 1.7v7.04h-2v-6.96q0-.83-.32-1.32-.3-.5-.86-.72a3 3 0 0 0-1.33-.24q-.88 0-1.48.28-.6.3-.95.78-.36.5-.52 1.15-.15.63-.15 1.34m7.59-1-1.35.38q.02-.87.32-1.67t.9-1.42 1.46-.99a5 5 0 0 1 1.98-.37q.94 0 1.67.22.74.22 1.23.7.51.45.77 1.18.26.72.26 1.71v6.95h-2.01v-6.96q0-.9-.32-1.38a1.6 1.6 0 0 0-.86-.7 3.8 3.8 0 0 0-2.5 0 2.4 2.4 0 0 0-1.38 1.38q-.17.45-.17.98m10.3 5.72q0-.45.32-.77.31-.32.93-.32.6 0 .92.32.33.3.32.77 0 .45-.32.76-.32.3-.92.31-.6 0-.93-.31-.32-.3-.32-.76M11.6 288.95a1.2 1.2 0 0 1-.79-.3l-4.7-4.23q-.16-.14-.25-.33a.9.9 0 0 1 .23-1.1 1 1 0 0 1 .8-.3q.22 0 .42.09.21.08.36.22l3.92 3.53 7.06-6.35c.2-.2.49-.3.78-.3q.46 0 .79.3.31.29.32.7 0 .42-.32.7l-7.84 7.08q-.16.13-.36.21a1 1 0 0 1-.43.08M43.1 277v14.22h-2.06V277zm5.07 0v1.55H35.99V277zm5.81 14.41a6 6 0 0 1-2.22-.37 4.7 4.7 0 0 1-2.78-2.68 5 5 0 0 1-.38-2.05v-.41q0-1.3.42-2.3a5.1 5.1 0 0 1 4.7-3.14q1.26 0 2.16.4a4 4 0 0 1 1.5 1.08q.6.7.88 1.64.27.94.28 2.05v.81h-8.75v-1.47h6.74v-.14a4 4 0 0 0-.32-1.36q-.27-.67-.87-1.1-.6-.42-1.62-.43-.68 0-1.26.27-.56.25-.98.76-.42.5-.64 1.24a6 6 0 0 0-.23 1.69v.4q0 .75.23 1.42t.68 1.15q.45.51 1.1.78.65.3 1.47.29a3.8 3.8 0 0 0 3.08-1.44l1.22.87q-.39.53-.97.99t-1.44.76q-.84.3-2 .3m9.07-15.19v14.99h-2.01v-15zm5.39 0v14.99h-2.01v-15zm10.39 12.55v-8.12h2v10.56h-1.9zm.37-2.23.84-.02q0 1.06-.25 1.95-.24.9-.78 1.55-.54.64-1.42 1.02a6 6 0 0 1-2.13.36 5 5 0 0 1-1.57-.22 3 3 0 0 1-1.21-.7 3 3 0 0 1-.8-1.22q-.26-.75-.27-1.8v-6.81h2v6.83q0 .71.18 1.18.19.45.49.73t.7.37q.38.1.8.11a4 4 0 0 0 2.02-.44q.74-.45 1.07-1.2t.33-1.69m11.51 1.87q0-.39-.2-.73-.18-.33-.76-.61a7 7 0 0 0-1.73-.49q-.98-.18-1.77-.44a6 6 0 0 1-1.33-.61 3 3 0 0 1-.83-.85q-.3-.49-.3-1.14 0-.63.3-1.19.32-.56.88-.98.58-.43 1.38-.68a6 6 0 0 1 1.79-.24q1.4 0 2.4.45.99.45 1.53 1.2.53.74.53 1.65h-2q0-.45-.3-.85a2 2 0 0 0-.83-.7q-.54-.26-1.33-.27-.84 0-1.36.24-.51.22-.74.57a1.3 1.3 0 0 0-.12 1.27q.12.23.4.42.3.19.83.36t1.35.33q1.44.3 2.37.7t1.39 1 .46 1.45q0 .69-.33 1.27-.31.57-.92 1-.6.4-1.43.64-.82.22-1.85.22a6 6 0 0 1-2.62-.5 4 4 0 0 1-1.62-1.28 3 3 0 0 1-.56-1.67h2.02q.05.75.47 1.18.45.43 1.06.61a4.6 4.6 0 0 0 2.62-.02q.57-.19.86-.53t.3-.78m17.03.99v-5.44q0-.62-.28-1.08a2 2 0 0 0-.82-.72 3 3 0 0 0-1.37-.25q-.75 0-1.33.23-.56.24-.89.61-.3.39-.3.82h-2.01q0-.56.32-1.12.33-.55.93-1 .62-.45 1.48-.73a6 6 0 0 1 1.92-.27q1.27 0 2.25.4a3.3 3.3 0 0 1 1.54 1.17q.57.79.57 1.96v4.92q0 .53.1 1.13t.3 1.02v.16h-2.08q-.15-.32-.24-.83a6 6 0 0 1-.09-.98m.35-4.6.02 1.27h-2.02q-.85 0-1.53.13-.67.12-1.13.36t-.69.62a1.7 1.7 0 0 0 .01 1.76q.25.4.75.65.5.23 1.24.23a3.6 3.6 0 0 0 1.63-.35q.7-.36 1.11-.86.42-.51.46-.99l.85.87q-.08.42-.4.91-.34.5-.9.96-.55.45-1.33.75-.75.3-1.7.3-1.2 0-2.1-.43a3.5 3.5 0 0 1-1.38-1.12q-.5-.71-.5-1.6 0-.85.38-1.48.36-.66 1.06-1.09t1.66-.66a10 10 0 0 1 2.18-.23zm6.8-2.49v8.9h-2v-10.56h1.95zm3.67-1.72-.01 1.68-.48-.06-.5-.02q-.7 0-1.22.2a2.6 2.6 0 0 0-1.48 1.38 4 4 0 0 0-.27 1.05l-.57.3q0-.96.2-1.8.22-.84.67-1.48.45-.66 1.13-1.02a3.4 3.4 0 0 1 2.53-.23m6.33 9.33q.7 0 1.31-.26.6-.27 1-.73.39-.46.44-1.06h1.9q-.04.93-.7 1.75a5 5 0 0 1-1.67 1.3 5 5 0 0 1-2.29.48q-1.32 0-2.3-.42a4.5 4.5 0 0 1-2.6-2.83 7 7 0 0 1-.3-2.02v-.4q0-1.08.3-2.02.33-.96.97-1.69.65-.73 1.63-1.15a6 6 0 0 1 2.3-.42q1.38 0 2.4.5a4 4 0 0 1 1.62 1.38q.6.85.65 1.95h-1.9a2.5 2.5 0 0 0-1.36-2.02q-.61-.33-1.4-.33-.93 0-1.56.34-.61.31-.98.88-.36.54-.52 1.21-.15.67-.15 1.36v.41q0 .7.15 1.37t.5 1.22q.37.54 1 .88.62.32 1.55.32m14.09-1.15v-8.12h2v10.56h-1.9zm.37-2.23.84-.02q0 1.06-.25 1.95-.24.9-.78 1.55-.54.64-1.42 1.02a6 6 0 0 1-2.13.36 5 5 0 0 1-1.57-.22 3 3 0 0 1-1.21-.7 3 3 0 0 1-.8-1.22q-.27-.75-.27-1.8v-6.81h2v6.83q0 .71.18 1.18.18.45.49.73.3.27.7.37.38.1.8.11a4 4 0 0 0 2.02-.44q.75-.45 1.07-1.2t.33-1.69m17.01 1.87q0-.39-.2-.73-.18-.33-.76-.61a7 7 0 0 0-1.73-.49q-.98-.18-1.77-.44a6 6 0 0 1-1.33-.61 3 3 0 0 1-.83-.85q-.3-.49-.3-1.14 0-.63.3-1.19.32-.56.88-.98.58-.43 1.38-.68a6 6 0 0 1 1.79-.24q1.4 0 2.4.45.99.45 1.53 1.2.53.74.53 1.65h-2q0-.45-.3-.85a2 2 0 0 0-.83-.7q-.54-.26-1.33-.27-.84 0-1.36.24a1.7 1.7 0 0 0-.75.57 1.4 1.4 0 0 0-.11 1.27q.12.23.4.42.3.19.83.36t1.35.33q1.44.3 2.38.7t1.38 1 .46 1.45q0 .69-.33 1.27-.31.57-.92 1-.6.4-1.43.64-.82.22-1.85.22a6 6 0 0 1-2.62-.5 4 4 0 0 1-1.62-1.28 3 3 0 0 1-.56-1.67h2.02q.05.75.47 1.18.45.43 1.06.61a4.6 4.6 0 0 0 2.63-.02q.56-.19.85-.53.3-.35.3-.78m9.49 2.99a6 6 0 0 1-2.22-.37 4.7 4.7 0 0 1-2.78-2.68 5 5 0 0 1-.38-2.05v-.41q0-1.3.42-2.3a5.1 5.1 0 0 1 4.7-3.14q1.25 0 2.16.4a4 4 0 0 1 1.5 1.08q.6.7.87 1.64.29.94.28 2.05v.81h-8.74v-1.47h6.74v-.14a4 4 0 0 0-.32-1.36q-.27-.67-.87-1.1-.6-.42-1.62-.43-.69 0-1.26.27-.57.25-.98.76a4 4 0 0 0-.64 1.24 6 6 0 0 0-.23 1.69v.4q0 .75.23 1.42t.68 1.15q.45.51 1.1.78.64.3 1.47.29a3.8 3.8 0 0 0 3.08-1.44l1.21.87q-.37.53-.96.99-.58.46-1.44.76-.84.3-2 .3m14.28-2.25v-12.94h2.01v14.99h-1.84zm-7.88-3.12v-.2q0-1.2.32-2.2a5 5 0 0 1 .94-1.7q.62-.71 1.46-1.1.85-.39 1.9-.39 1.12 0 1.94.35.83.34 1.4 1 .6.66.92 1.59.34.93.47 2.1v.9a8 8 0 0 1-.47 2.08 5 5 0 0 1-.92 1.58q-.57.66-1.4 1.01a5 5 0 0 1-3.84-.06 4 4 0 0 1-1.46-1.12 5 5 0 0 1-.94-1.7 7 7 0 0 1-.33-2.14m2-.2v.2q0 .79.18 1.49.19.7.56 1.22a2.7 2.7 0 0 0 2.37 1.12q.99 0 1.63-.38.65-.38 1.04-1 .39-.63.6-1.36v-2.35q-.12-.54-.37-1.04a3 3 0 0 0-1.57-1.53q-.55-.24-1.31-.24-.82 0-1.42.32-.59.3-.97.83a4 4 0 0 0-.56 1.24q-.17.69-.17 1.48m21.2 4.08q.7 0 1.32-.26.6-.27 1-.73.38-.46.44-1.06h1.9q-.05.93-.7 1.75a5 5 0 0 1-1.68 1.3 5 5 0 0 1-2.28.48q-1.33 0-2.31-.42a4.5 4.5 0 0 1-2.59-2.83 7 7 0 0 1-.31-2.02v-.4q0-1.08.31-2.02.33-.96.97-1.69.65-.73 1.62-1.15a6 6 0 0 1 2.3-.42q1.38 0 2.4.5a4 4 0 0 1 1.62 1.38q.6.85.65 1.95h-1.9a2.5 2.5 0 0 0-1.36-2.02q-.6-.33-1.4-.33-.93 0-1.55.34-.62.31-.99.88-.35.54-.52 1.21-.15.67-.15 1.36v.41q0 .7.15 1.37t.51 1.22q.38.54.99.88.62.32 1.56.32m6.38-3.88v-.22q0-1.14.37-2.12a5 5 0 0 1 2.74-2.84q1-.4 2.2-.4 1.24 0 2.23.4a5 5 0 0 1 2.76 2.84q.37.98.37 2.12v.22q0 1.14-.37 2.12a5 5 0 0 1-4.96 3.24q-1.23 0-2.22-.4a5 5 0 0 1-1.69-1.13 5 5 0 0 1-1.06-1.7 6 6 0 0 1-.37-2.13m2-.22v.22q0 .8.21 1.5.2.69.62 1.23a3 3 0 0 0 2.51 1.15q.82 0 1.44-.3.63-.32 1.04-.85.4-.54.62-1.23.21-.7.21-1.5v-.22a5 5 0 0 0-.21-1.47 4 4 0 0 0-.63-1.24 3 3 0 0 0-1.04-.86q-.62-.32-1.45-.32-.82 0-1.45.32-.62.31-1.04.86-.41.53-.62 1.24-.2.69-.2 1.47m13.17-2.92v8.3h-2v-10.55h1.9zm-.48 2.63-.83-.03q0-1.09.36-2 .34-.93.97-1.61t1.5-1.06a5.2 5.2 0 0 1 3.5-.17 2.9 2.9 0 0 1 1.93 1.86q.27.72.26 1.77v6.92h-2.01v-6.94q0-.84-.27-1.33a1.6 1.6 0 0 0-.8-.73 3 3 0 0 0-1.27-.24 3.2 3.2 0 0 0-2.41 1.07 3.8 3.8 0 0 0-.93 2.49m17.56 2.88q0-.39-.2-.73-.18-.33-.77-.61a7 7 0 0 0-1.73-.49q-.98-.18-1.77-.44a6 6 0 0 1-1.33-.61 3 3 0 0 1-.83-.85q-.3-.49-.3-1.14 0-.63.3-1.19.32-.56.89-.98.57-.43 1.37-.68a6 6 0 0 1 1.79-.24q1.41 0 2.4.45 1 .45 1.53 1.2.53.74.53 1.65h-2q0-.45-.3-.85a2 2 0 0 0-.83-.7q-.54-.26-1.33-.27-.83 0-1.36.24a1.7 1.7 0 0 0-.74.57 1.4 1.4 0 0 0-.12 1.27q.12.23.4.42.3.19.83.36t1.35.33q1.45.3 2.38.7t1.38 1 .46 1.45q0 .69-.33 1.27-.3.57-.92 1-.6.4-1.43.64-.82.22-1.85.22a6 6 0 0 1-2.62-.5 4 4 0 0 1-1.62-1.28 3 3 0 0 1-.56-1.67h2.02q.04.75.48 1.18.42.43 1.06.61a4.6 4.6 0 0 0 2.62-.02q.56-.19.85-.53.3-.35.3-.78m9.49 2.99a6 6 0 0 1-2.22-.37 4.7 4.7 0 0 1-2.78-2.68 5 5 0 0 1-.38-2.05v-.41q0-1.3.42-2.3a5.1 5.1 0 0 1 4.7-3.14q1.26 0 2.16.4a4 4 0 0 1 1.5 1.08q.6.7.88 1.64t.28 2.05v.81h-8.75v-1.47h6.74v-.14a4 4 0 0 0-.32-1.36q-.27-.67-.87-1.1-.6-.42-1.62-.43-.68 0-1.26.27-.56.25-.98.76-.42.5-.64 1.24a6 6 0 0 0-.23 1.69v.4q0 .75.23 1.42t.68 1.15q.45.51 1.1.78.64.3 1.47.29a3.8 3.8 0 0 0 3.08-1.44l1.22.87q-.39.53-.97.99-.59.46-1.44.76-.84.3-2 .3m14.27 3.86v-12.6l.17-2.02h1.84v14.62zm-7.87-9.23v-.2q0-1.2.31-2.2.32-1 .92-1.7.61-.71 1.46-1.1a5 5 0 0 1 1.97-.39q1.11 0 1.94.35.84.34 1.43 1 .6.66.94 1.59.35.93.48 2.1v.9a8 8 0 0 1-.47 2.08 5 5 0 0 1-.94 1.58q-.58.66-1.44 1.01-.84.34-1.96.34a4.2 4.2 0 0 1-3.41-1.52q-.6-.72-.92-1.7a7 7 0 0 1-.31-2.14m2.01-.2v.2q0 .8.18 1.5.19.69.57 1.23.39.54.97.85.6.3 1.4.3a3 3 0 0 0 1.67-.4q.66-.38 1.07-1.02.4-.64.61-1.37v-2.35a4.4 4.4 0 0 0-1.02-1.96q-.4-.4-.98-.64a3 3 0 0 0-1.32-.25q-.82 0-1.42.32-.6.31-.98.86-.37.53-.57 1.24-.18.7-.18 1.49m18.25 2.93v-8.12h2.02v10.56h-1.92zm.38-2.23.84-.02q0 1.06-.25 1.95-.24.9-.78 1.55-.54.64-1.42 1.02a6 6 0 0 1-2.13.36 5 5 0 0 1-1.57-.22 3 3 0 0 1-1.22-.7 3 3 0 0 1-.79-1.22q-.27-.75-.27-1.8v-6.81h2v6.83q0 .71.18 1.18.18.45.49.73.3.27.69.37.4.1.8.11a4 4 0 0 0 2.03-.44q.75-.45 1.07-1.2t.33-1.69m11.6 2.86v-5.44q0-.62-.28-1.08a2 2 0 0 0-.83-.72 3 3 0 0 0-1.36-.25q-.75 0-1.33.23-.56.24-.9.61-.3.39-.3.82h-2q0-.56.32-1.12.31-.55.93-1t1.47-.73a6 6 0 0 1 1.93-.27q1.28 0 2.25.4a3.3 3.3 0 0 1 1.54 1.17q.56.79.56 1.96v4.92q0 .53.1 1.13t.31 1.02v.16h-2.09q-.15-.32-.24-.83a6 6 0 0 1-.08-.98m.34-4.6.03 1.27h-2.03q-.85 0-1.53.13-.66.12-1.12.36t-.7.62q-.23.36-.23.85 0 .5.25.9.24.42.74.66.51.23 1.25.23a3.6 3.6 0 0 0 2.74-1.2q.42-.52.45-1l.86.87q-.08.42-.41.91-.35.5-.9.96t-1.32.75q-.76.3-1.71.3a5 5 0 0 1-2.1-.43 3.5 3.5 0 0 1-1.38-1.12q-.49-.71-.49-1.6a3 3 0 0 1 1.43-2.57 5 5 0 0 1 1.67-.66 10 10 0 0 1 2.18-.23zm9.72-4.15v1.38h-6.34v-1.38zm-4.2-2.57h2v10.51q0 .54.2.81.17.27.47.36t.63.09a4 4 0 0 0 .94-.12v1.48q-.23.06-.62.12-.38.07-.92.07-.73 0-1.35-.26a2 2 0 0 1-.99-.88 3.4 3.4 0 0 1-.35-1.68zm18.95 11.32v-5.44q0-.62-.28-1.08a2 2 0 0 0-.82-.72 3 3 0 0 0-1.37-.25q-.75 0-1.33.23-.56.24-.89.61-.3.39-.31.82h-2q0-.56.32-1.12.33-.55.93-1 .62-.45 1.47-.73a6 6 0 0 1 1.93-.27q1.28 0 2.25.4a3.3 3.3 0 0 1 1.54 1.17q.57.79.56 1.96v4.92q0 .53.1 1.13t.31 1.02v.16h-2.08q-.16-.32-.24-.83a6 6 0 0 1-.09-.98m.35-4.6.02 1.27h-2.03q-.85 0-1.52.13-.67.12-1.13.36t-.7.62a1.7 1.7 0 0 0 .01 1.76q.26.4.76.65.5.23 1.24.23a3.6 3.6 0 0 0 1.63-.35q.7-.36 1.11-.86.42-.51.46-.99l.85.87q-.08.42-.41.91t-.9.96q-.55.45-1.32.75-.75.3-1.71.3a5 5 0 0 1-2.09-.43 3.5 3.5 0 0 1-1.39-1.12q-.48-.71-.48-1.6 0-.85.36-1.48.37-.66 1.07-1.09.69-.44 1.66-.66a10 10 0 0 1 2.18-.23zm9.49 5.12q.72 0 1.32-.26.6-.27 1-.73.38-.46.44-1.06h1.9q-.04.93-.7 1.75a5 5 0 0 1-1.67 1.3 5 5 0 0 1-2.29.48q-1.32 0-2.3-.42a4.5 4.5 0 0 1-2.6-2.83 7 7 0 0 1-.3-2.02v-.4q0-1.08.3-2.02.33-.96.97-1.69.66-.73 1.63-1.15a6 6 0 0 1 2.3-.42q1.38 0 2.4.5a4 4 0 0 1 1.62 1.38q.6.85.65 1.95h-1.9a2.5 2.5 0 0 0-1.36-2.02q-.6-.33-1.4-.33-.93 0-1.56.34-.61.31-.98.88-.36.54-.52 1.21-.15.67-.15 1.36v.41q0 .7.15 1.37t.5 1.22q.37.54 1 .88.62.32 1.55.32m15.98-.34 3.2-8.93h2.05l-4.21 10.56h-1.34zm-2.67-8.93 3.3 8.98.23 1.58h-1.35l-4.24-10.56zm14.56 10.75a6 6 0 0 1-2.22-.37 4.7 4.7 0 0 1-2.78-2.68 5 5 0 0 1-.38-2.05v-.41q0-1.3.42-2.3a5.1 5.1 0 0 1 4.7-3.14q1.26 0 2.16.4a4 4 0 0 1 1.5 1.08q.6.7.87 1.64.3.94.29 2.05v.81h-8.75v-1.47h6.74v-.14a4 4 0 0 0-.32-1.36q-.27-.67-.87-1.1-.6-.42-1.62-.43-.68 0-1.26.27-.56.25-.98.76-.42.5-.64 1.24a6 6 0 0 0-.23 1.69v.4q0 .75.23 1.42t.68 1.15q.45.51 1.1.78.64.3 1.47.29a3.8 3.8 0 0 0 3.08-1.44l1.21.87q-.37.53-.96.99-.58.46-1.44.76-.84.3-2 .3m9.07-15.19v14.99h-2.01v-15zm5.39 4.43v10.56h-2.01v-10.56zm-2.16-2.8q0-.45.29-.75.3-.3.89-.3.57 0 .87.3.32.3.32.75 0 .4-.32.72-.3.3-.87.29-.6 0-.9-.3a1 1 0 0 1-.28-.71m10.28 2.8v1.38H361v-1.38zm-4.19-2.57h2v10.51q0 .54.19.81.18.27.48.36.29.09.62.09a4 4 0 0 0 .94-.12l.02 1.48-.63.12q-.38.07-.92.07-.74 0-1.36-.26a2 2 0 0 1-.98-.88 3.4 3.4 0 0 1-.36-1.68zm19.21 10.69v-8.12h2.01v10.56h-1.92zm.38-2.23.83-.02q0 1.06-.25 1.95-.24.9-.78 1.55-.54.64-1.42 1.02a6 6 0 0 1-2.13.36 5 5 0 0 1-1.57-.22 3 3 0 0 1-1.21-.7 3 3 0 0 1-.8-1.22q-.26-.75-.26-1.8v-6.81h2v6.83q0 .71.17 1.18.2.45.49.73.31.27.7.37t.8.11a4 4 0 0 0 2.02-.44q.75-.45 1.07-1.2t.34-1.69m9.59-5.89v1.38h-6.33v-1.38zm-4.2-2.57h2.01v10.51q0 .54.19.81.18.27.47.36.3.09.63.09a4 4 0 0 0 .94-.12l.01 1.48a5 5 0 0 1-1.55.2q-.74 0-1.35-.27a2 2 0 0 1-.98-.88 3.4 3.4 0 0 1-.36-1.68zm16.91 13.32a6 6 0 0 1-2.22-.37 4.7 4.7 0 0 1-2.78-2.68 5 5 0 0 1-.38-2.05v-.41q0-1.3.42-2.3a5.1 5.1 0 0 1 4.7-3.14q1.26 0 2.16.4a4 4 0 0 1 1.5 1.08q.6.7.87 1.64.3.94.29 2.05v.81h-8.75v-1.47h6.74v-.14a4 4 0 0 0-.32-1.36q-.27-.67-.87-1.1-.6-.42-1.62-.43-.68 0-1.26.27-.56.25-.98.76-.42.5-.64 1.24a6 6 0 0 0-.23 1.69v.4q0 .75.23 1.42t.68 1.15q.45.51 1.1.78.64.3 1.47.29a3.8 3.8 0 0 0 3.08-1.44l1.21.87q-.37.53-.96.99t-1.44.76-2 .3m14.07-2.64v-8.12h2v10.56h-1.91zm.37-2.23.83-.02q0 1.06-.25 1.95-.23.9-.78 1.55-.54.64-1.41 1.02a6 6 0 0 1-2.14.36 5 5 0 0 1-1.57-.22 3 3 0 0 1-1.2-.7 3 3 0 0 1-.8-1.22q-.27-.75-.27-1.8v-6.81h2v6.83q0 .71.18 1.18.18.45.48.73.31.27.7.37t.8.11a4 4 0 0 0 2.02-.44q.75-.45 1.07-1.2.34-.75.34-1.69m10.18-10.32h2.01v12.94l-.17 2.05h-1.84zm9.92 9.62v.2q0 1.15-.3 2.14-.3.98-.89 1.7-.58.73-1.43 1.12-.84.4-1.93.4-1.12 0-1.96-.34a4 4 0 0 1-1.41-1 5 5 0 0 1-.92-1.59 9 9 0 0 1-.47-2.09v-.9q.14-1.16.47-2.1.35-.91.92-1.57t1.4-1q.83-.36 1.94-.36 1.12 0 1.96.4.86.37 1.43 1.08.6.72.9 1.71.3 1 .3 2.2m-2 .2v-.2q0-.79-.17-1.49-.16-.69-.52-1.23a2.5 2.5 0 0 0-.94-.83q-.6-.32-1.44-.32-.76 0-1.32.24t-.95.63-.63.9-.36 1.04v2.35q.17.69.56 1.31.4.63 1.06 1.03.67.4 1.66.4.81 0 1.38-.3.59-.3.95-.82.36-.53.54-1.22.17-.7.17-1.49m6.71-9.82v14.99h-2.01v-15zm10.12 13.18v-5.44q0-.62-.27-1.08a2 2 0 0 0-.83-.72 3 3 0 0 0-1.36-.25q-.75 0-1.33.23-.57.24-.9.61-.3.39-.3.82h-2q0-.56.32-1.12.32-.55.93-1 .6-.45 1.47-.73a6 6 0 0 1 1.93-.27q1.27 0 2.25.4a3.3 3.3 0 0 1 1.54 1.17q.56.79.56 1.96v4.92q0 .53.1 1.13t.31 1.02v.16h-2.09q-.15-.32-.24-.83a6 6 0 0 1-.08-.98m.35-4.6.02 1.27h-2.02q-.86 0-1.53.13-.66.12-1.12.36t-.7.62a1.7 1.7 0 0 0 .01 1.76q.26.4.75.65.51.23 1.25.23a3.6 3.6 0 0 0 2.74-1.2q.42-.52.45-1l.86.87q-.09.42-.41.91-.35.5-.9.96-.56.45-1.32.75t-1.71.3a5 5 0 0 1-2.1-.43 3.5 3.5 0 0 1-1.38-1.12q-.49-.71-.49-1.6a3 3 0 0 1 1.43-2.57 5 5 0 0 1 1.67-.66 10 10 0 0 1 2.18-.23zm6.8-1.9v8.3h-2v-10.55h1.9zm-.47 2.63-.84-.03q.01-1.09.36-2 .35-.93.97-1.61.63-.69 1.5-1.06a5.2 5.2 0 0 1 3.5-.17 2.9 2.9 0 0 1 1.93 1.86q.27.72.26 1.77v6.92h-2.01v-6.94q0-.84-.27-1.33a1.6 1.6 0 0 0-.8-.73 3 3 0 0 0-1.27-.24 3.2 3.2 0 0 0-2.41 1.07 3.8 3.8 0 0 0-.92 2.49m18.11 3.63v-12.94h2.01v14.99h-1.84zm-7.88-3.12v-.2a7 7 0 0 1 .32-2.2q.34-1 .94-1.7.62-.71 1.47-1.1t1.9-.39q1.1 0 1.93.35t1.4 1q.6.66.93 1.59t.46 2.1v.9a8 8 0 0 1-.47 2.08 5 5 0 0 1-.91 1.58q-.58.66-1.41 1.01a5 5 0 0 1-3.83-.06 4 4 0 0 1-1.47-1.12 5 5 0 0 1-.94-1.7 7 7 0 0 1-.32-2.14m2.01-.2v.2q0 .79.17 1.49.19.7.57 1.22a2.7 2.7 0 0 0 2.36 1.12q.99 0 1.63-.38.65-.38 1.04-1 .39-.63.6-1.36v-2.35q-.12-.54-.37-1.04a3.2 3.2 0 0 0-1.57-1.53q-.55-.24-1.31-.24-.82 0-1.42.32-.58.3-.96.83-.38.54-.57 1.24-.17.69-.17 1.48m13.17-5.19v10.56h-2v-10.56zm-2.16-2.8q0-.45.3-.75t.88-.3.88.3.31.75q0 .4-.31.72-.3.3-.88.29-.59 0-.89-.3a1 1 0 0 1-.29-.71m10.29 2.8v1.38h-6.34v-1.38zm-4.2-2.57h2v10.51q0 .54.2.81.17.27.47.36t.63.09a4 4 0 0 0 .94-.12l.01 1.48-.63.12q-.38.07-.92.07-.74 0-1.35-.26a2 2 0 0 1-.99-.88 3.4 3.4 0 0 1-.35-1.68zm6.57 12.17q0-.45.32-.77.33-.33.93-.32.6 0 .92.32.33.3.33.77 0 .45-.33.76-.3.31-.92.31-.6 0-.93-.3-.3-.32-.31-.77M11.6 324.93a1.2 1.2 0 0 1-.79-.3l-4.7-4.23a1 1 0 0 1-.25-.33.9.9 0 0 1 .23-1.1 1 1 0 0 1 .8-.3 1.2 1.2 0 0 1 .78.31l3.92 3.54 7.06-6.36c.2-.2.49-.3.78-.3q.46 0 .79.3.31.29.32.7 0 .41-.32.71l-7.84 7.07a1 1 0 0 1-.79.29m34.71-11.94h2.07v9.61a4.35 4.35 0 0 1-2.89 4.27q-1.3.52-2.82.52a8 8 0 0 1-2.9-.52 4.6 4.6 0 0 1-2.05-1.6q-.75-1.06-.75-2.67V313h2.07v9.61q0 1.1.45 1.84.45.72 1.27 1.07t1.9.35q1.1 0 1.91-.35.82-.36 1.28-1.07.45-.73.45-1.84zm7.22-.79v15h-2v-15zm5.4 0v15H56.9v-15zm10.12 13.2v-5.44q0-.63-.28-1.09a2 2 0 0 0-.83-.72 3 3 0 0 0-1.36-.25q-.76 0-1.33.23a2.3 2.3 0 0 0-.89.62q-.3.37-.31.82h-2q0-.56.32-1.13.33-.55.93-1 .61-.46 1.47-.72a6 6 0 0 1 1.93-.28q1.27 0 2.25.4a3.3 3.3 0 0 1 1.54 1.17q.56.79.56 1.97v4.92q0 .52.1 1.12t.31 1.02v.16h-2.09q-.15-.31-.23-.83a6 6 0 0 1-.1-.98m.34-4.6.03 1.26h-2.03q-.86 0-1.52.13-.68.12-1.13.36-.45.25-.7.62a1.7 1.7 0 0 0 .01 1.76q.26.4.75.65.51.24 1.25.23a4 4 0 0 0 1.62-.35q.7-.35 1.12-.86.42-.5.45-.98l.86.87q-.08.4-.41.9-.34.5-.9.96-.55.45-1.32.75-.76.3-1.71.3-1.2 0-2.1-.42a3.5 3.5 0 0 1-1.38-1.13q-.48-.7-.49-1.59 0-.84.37-1.5a3 3 0 0 1 1.06-1.08q.7-.44 1.67-.66a10 10 0 0 1 2.18-.22zm6.81-2.05v8.46h-2.01v-10.56h1.9zm-.4 2.78-.94-.03q0-1.08.32-2 .3-.93.9-1.61t1.48-1.06 2.05-.38q.83 0 1.52.22.69.2 1.2.65.5.46.8 1.15.27.7.27 1.7v7.04h-2v-6.95q0-.83-.31-1.33-.3-.5-.87-.72a3 3 0 0 0-1.32-.23q-.9 0-1.48.28-.6.28-.96.78-.34.5-.52 1.14-.15.63-.15 1.35m7.58-1-1.34.37q0-.86.31-1.66t.9-1.43 1.46-.99a5 5 0 0 1 1.98-.37q.95 0 1.67.23.74.22 1.24.69t.76 1.18q.26.73.26 1.72v6.94H88.6v-6.96q0-.9-.31-1.38a1.6 1.6 0 0 0-.87-.69 3.8 3.8 0 0 0-2.49 0 2.4 2.4 0 0 0-1.39 1.38q-.17.46-.17.97m14.95 5.39q.72 0 1.32-.26.6-.27 1-.72.39-.47.44-1.07h1.9q-.04.94-.7 1.75a5 5 0 0 1-1.67 1.3 5 5 0 0 1-2.29.48q-1.32 0-2.3-.41a4.5 4.5 0 0 1-2.59-2.84 6 6 0 0 1-.31-2.02v-.4q0-1.08.31-2.02.33-.95.96-1.69.66-.73 1.63-1.15a6 6 0 0 1 2.3-.42q1.38 0 2.4.51a4 4 0 0 1 1.62 1.37q.6.86.65 1.95h-1.9a2.5 2.5 0 0 0-1.36-2.02q-.6-.33-1.4-.32-.93 0-1.55.33-.62.31-.99.88-.36.54-.52 1.22-.15.67-.15 1.35v.41q0 .7.15 1.37t.5 1.22q.37.55 1 .88.62.32 1.55.32m6.39-3.87v-.23q0-1.14.37-2.12a5 5 0 0 1 2.74-2.84q.99-.4 2.2-.4 1.24 0 2.23.4a4.8 4.8 0 0 1 2.76 2.84q.36.98.36 2.12v.23q0 1.14-.36 2.11a5 5 0 0 1-2.75 2.84q-.98.4-2.21.4-1.24 0-2.22-.4a5 5 0 0 1-1.69-1.13 5 5 0 0 1-1.06-1.7 6 6 0 0 1-.37-2.12m2-.23v.23q0 .78.2 1.49.22.69.63 1.23a3 3 0 0 0 2.5 1.15q.84 0 1.45-.3.63-.32 1.04-.85.41-.54.61-1.23.22-.7.22-1.5v-.22a5 5 0 0 0-.22-1.47 4 4 0 0 0-.62-1.24 3 3 0 0 0-1.04-.86q-.62-.3-1.45-.31-.83 0-1.45.3-.62.32-1.04.87-.41.54-.62 1.24-.2.69-.2 1.47m13.17-3.51v8.9h-2v-10.56h1.94zm3.66-1.72-.01 1.68-.48-.06-.5-.02q-.7 0-1.22.2a2.6 2.6 0 0 0-1.48 1.38q-.21.48-.27 1.06l-.57.29q0-.96.2-1.8.22-.84.67-1.48.45-.65 1.13-1.02a3.4 3.4 0 0 1 2.53-.23m3.85 2.09v12.59h-2.01v-14.62h1.84zm7.9 3.16v.2q0 1.16-.3 2.14t-.9 1.7q-.57.73-1.41 1.12-.85.4-1.94.4-1.12 0-1.97-.33a4 4 0 0 1-1.45-.96q-.6-.64-.96-1.53a8 8 0 0 1-.47-2v-1.1a8 8 0 0 1 .48-2.09 5 5 0 0 1 .95-1.58q.6-.66 1.44-1a5 5 0 0 1 1.94-.36q1.11 0 1.97.4.84.37 1.43 1.09.6.7.88 1.7.3 1 .3 2.2m-2.02.2v-.2a6 6 0 0 0-.18-1.48 4 4 0 0 0-.58-1.23 3 3 0 0 0-.97-.84q-.6-.31-1.42-.31-.75 0-1.32.23-.55.24-.94.63-.4.4-.64.9t-.36 1.04v2.53q.23.68.6 1.28a3 3 0 0 0 1.05.97q.64.36 1.63.36a2.7 2.7 0 0 0 2.37-1.15q.39-.54.58-1.23.18-.7.18-1.5m9.44 5.37q-1.22 0-2.22-.38a4.7 4.7 0 0 1-2.78-2.69 5 5 0 0 1-.38-2.04v-.41q0-1.28.42-2.3a5.05 5.05 0 0 1 4.7-3.14q1.26 0 2.17.4a4 4 0 0 1 1.5 1.09q.59.69.87 1.64.28.93.28 2.05v.8h-8.75v-1.47h6.74v-.13a4 4 0 0 0-.32-1.37q-.27-.66-.87-1.1-.6-.42-1.62-.42-.68 0-1.25.26-.58.25-.99.76-.42.5-.64 1.24a6 6 0 0 0-.23 1.69v.41q0 .75.23 1.41t.68 1.16 1.1.78 1.47.28a3.8 3.8 0 0 0 3.08-1.43l1.22.86q-.39.53-.97.99-.59.47-1.44.76-.84.3-2 .3m8.89-9.1v8.9h-2v-10.56h1.96zm3.67-1.72-.01 1.68-.48-.06-.5-.02q-.7 0-1.22.2a2.6 2.6 0 0 0-1.48 1.38q-.21.48-.27 1.06l-.57.29q0-.96.2-1.8.22-.84.67-1.48.44-.65 1.13-1.02a3.4 3.4 0 0 1 2.53-.23m6.82 5.46v-.23q0-1.14.37-2.12a4.94 4.94 0 0 1 4.94-3.25q1.25 0 2.22.41a5 5 0 0 1 2.76 2.84q.37.98.37 2.12v.23q0 1.14-.37 2.11a5 5 0 0 1-4.95 3.24q-1.25 0-2.22-.4a5 5 0 0 1-1.7-1.13 5 5 0 0 1-1.05-1.7 6 6 0 0 1-.37-2.12m2-.23v.23q0 .78.2 1.49.22.69.63 1.23a3 3 0 0 0 2.5 1.15q.84 0 1.45-.3.62-.32 1.04-.85.41-.54.61-1.23.22-.7.22-1.5v-.22q0-.78-.22-1.47a4 4 0 0 0-.62-1.24 3 3 0 0 0-1.04-.86q-.62-.3-1.46-.31-.81 0-1.45.3-.6.32-1.03.87-.41.54-.62 1.24-.2.69-.2 1.47m13.17-3.51v8.9h-2v-10.56h1.94zm3.66-1.72-.01 1.68-.48-.06-.5-.02q-.7 0-1.22.2a2.6 2.6 0 0 0-1.48 1.38q-.2.48-.28 1.06l-.56.29q0-.96.2-1.8.22-.84.67-1.48.45-.65 1.12-1.02a3.4 3.4 0 0 1 2.54-.23m3.85 2.32v8.3h-2v-10.56h1.9zm-.48 2.62-.83-.03q0-1.08.36-2 .34-.93.97-1.61t1.5-1.06a5.2 5.2 0 0 1 3.5-.17 2.9 2.9 0 0 1 1.93 1.86q.26.72.26 1.77v6.92h-2.01v-6.94q0-.83-.27-1.33a1.6 1.6 0 0 0-.8-.73 3 3 0 0 0-1.27-.23q-.75 0-1.36.28-.6.28-1.06.78a3.8 3.8 0 0 0-.92 2.49m17.64 3.88v-5.44q0-.63-.28-1.09a2 2 0 0 0-.82-.72 3 3 0 0 0-1.37-.25q-.75 0-1.33.23a2.3 2.3 0 0 0-.89.62q-.3.37-.31.82h-2q0-.56.32-1.13.33-.55.93-1 .62-.46 1.47-.72a6 6 0 0 1 1.93-.28q1.27 0 2.25.4a3.3 3.3 0 0 1 1.54 1.17q.56.79.56 1.97v4.92q0 .52.1 1.12t.31 1.02v.16h-2.09q-.14-.31-.23-.83a6 6 0 0 1-.09-.98m.35-4.6.02 1.26h-2.03q-.85 0-1.52.13-.67.12-1.13.36-.45.25-.7.62a1.7 1.7 0 0 0 .01 1.76q.26.4.76.65.5.24 1.24.23a3.6 3.6 0 0 0 2.74-1.2q.42-.52.45-1l.86.88q-.08.4-.41.9-.34.5-.9.96-.55.45-1.32.75-.76.3-1.71.3-1.2 0-2.09-.42a3.5 3.5 0 0 1-1.39-1.13q-.48-.7-.48-1.59a3 3 0 0 1 1.43-2.58q.69-.44 1.66-.66a10 10 0 0 1 2.18-.22zm6.81-2.49v8.9h-2v-10.56h1.94zm3.66-1.72-.01 1.68-.48-.06-.5-.02q-.7 0-1.22.2a2.6 2.6 0 0 0-1.49 1.38q-.2.48-.27 1.06l-.56.29q0-.96.2-1.8.22-.84.67-1.48.45-.65 1.12-1.02a3.4 3.4 0 0 1 2.54-.23m6.49 10.82q-1.22 0-2.22-.38a4.7 4.7 0 0 1-2.78-2.69 5 5 0 0 1-.38-2.04v-.41q0-1.28.42-2.3a5.05 5.05 0 0 1 4.7-3.14q1.26 0 2.17.4a4 4 0 0 1 1.5 1.09q.6.69.87 1.64.28.93.28 2.05v.8h-8.75v-1.47h6.75v-.13a4 4 0 0 0-.33-1.37q-.27-.66-.86-1.1-.6-.42-1.63-.42-.68 0-1.25.26-.58.25-.99.76-.41.5-.64 1.24a6 6 0 0 0-.23 1.69v.41q0 .75.23 1.41t.68 1.16 1.1.78 1.47.28a3.8 3.8 0 0 0 3.08-1.43l1.22.86q-.38.53-.97.99-.58.47-1.44.76-.84.3-2 .3m14.57-10.76v10.56h-2.01v-10.56zm-2.16-2.8q0-.45.29-.74.3-.3.89-.3.57 0 .88.3.3.3.3.74 0 .42-.3.72t-.88.3q-.6 0-.89-.3a1 1 0 0 1-.3-.72m7.39 5.06v8.3h-2v-10.56h1.9zm-.47 2.62-.84-.03q0-1.08.36-2 .35-.93.97-1.61.63-.68 1.5-1.06a5.2 5.2 0 0 1 3.5-.17 2.9 2.9 0 0 1 1.93 1.86q.26.72.26 1.77v6.92h-2.01v-6.94q0-.83-.27-1.33a1.6 1.6 0 0 0-.8-.73 3 3 0 0 0-1.27-.23 3.2 3.2 0 0 0-2.41 1.06 4 4 0 0 0-.93 2.49m21.09 5.88q-1.22 0-2.21-.38a4.7 4.7 0 0 1-2.78-2.69 5 5 0 0 1-.39-2.04v-.41q0-1.28.43-2.3a5.1 5.1 0 0 1 4.7-3.14q1.25 0 2.16.4a4 4 0 0 1 1.5 1.09q.6.69.87 1.64.28.93.28 2.05v.8h-8.74v-1.47h6.74v-.13a4 4 0 0 0-.32-1.37q-.28-.66-.87-1.1-.6-.42-1.62-.42-.69 0-1.26.26-.57.25-.99.76-.4.5-.63 1.24a6 6 0 0 0-.23 1.69v.41q0 .75.22 1.41.25.66.69 1.16a3.3 3.3 0 0 0 2.56 1.06 3.8 3.8 0 0 0 3.09-1.43l1.21.86q-.37.53-.96.99-.6.47-1.44.76-.85.3-2 .3m11.8-10.76v1.38h-6.34v-1.38zm-4.2-2.57h2v10.51q0 .54.2.81.17.28.47.37t.63.08a4 4 0 0 0 .94-.11v1.47q-.23.07-.62.13-.38.06-.92.06-.74 0-1.35-.26a2 2 0 0 1-.99-.88 3.4 3.4 0 0 1-.36-1.68zm16.91 13.33q-1.23 0-2.22-.38a4.7 4.7 0 0 1-2.78-2.69 5 5 0 0 1-.39-2.04v-.41q0-1.28.43-2.3a5.1 5.1 0 0 1 4.7-3.14q1.25 0 2.16.4a4 4 0 0 1 1.5 1.09q.6.69.87 1.64.28.93.28 2.05v.8h-8.75v-1.47h6.75v-.13a4 4 0 0 0-.33-1.37q-.26-.66-.86-1.1-.6-.42-1.62-.42-.69 0-1.26.26-.57.25-.99.76a4 4 0 0 0-.64 1.24 6 6 0 0 0-.22 1.69v.41q0 .75.22 1.41.25.66.69 1.16a3.3 3.3 0 0 0 2.56 1.06 3.8 3.8 0 0 0 3.09-1.43l1.21.86q-.37.53-.96.99-.6.47-1.44.76t-2 .3m14.48-10.76h1.82v10.34q0 1.39-.63 2.38-.63.98-1.75 1.49a6 6 0 0 1-4 .34 6 6 0 0 1-1.61-.57 4 4 0 0 1-1.31-1.09l1.05-1.07a4.2 4.2 0 0 0 4.78 1.1q.7-.32 1.08-.95t.39-1.55v-8.1zm-8.06 5.4v-.2q0-1.23.3-2.2.34-1 .93-1.71t1.46-1.1a5 5 0 0 1 1.93-.39q1.1 0 1.93.35t1.4 1.01q.6.66.92 1.58.34.93.47 2.1v.9a8 8 0 0 1-.47 2.09 5 5 0 0 1-.92 1.58q-.57.65-1.4 1a5 5 0 0 1-3.86-.06 4 4 0 0 1-1.45-1.12 5 5 0 0 1-.93-1.7 7 7 0 0 1-.31-2.13m2-.2v.2q0 .78.17 1.48t.55 1.22a2.7 2.7 0 0 0 2.36 1.12q1 0 1.65-.38t1.03-1 .6-1.36v-2.35q-.12-.54-.37-1.04a3.2 3.2 0 0 0-1.56-1.53 3 3 0 0 0-1.32-.23q-.83 0-1.42.3-.59.31-.97.85-.37.53-.55 1.23-.18.69-.17 1.48m15.78 5.57q-1.21 0-2.22-.38a4.7 4.7 0 0 1-2.78-2.69 5 5 0 0 1-.38-2.04v-.41q0-1.28.42-2.3a5.1 5.1 0 0 1 4.7-3.14q1.26 0 2.17.4a4 4 0 0 1 1.5 1.09q.6.69.87 1.64.28.93.28 2.05v.8h-8.75v-1.47h6.75v-.13a4 4 0 0 0-.33-1.37q-.27-.66-.86-1.1-.6-.42-1.63-.42-.68 0-1.25.26-.58.25-.99.76-.41.5-.64 1.24a6 6 0 0 0-.23 1.69v.41q0 .75.23 1.41t.69 1.16 1.09.78 1.47.28a3.8 3.8 0 0 0 3.09-1.43l1.2.86q-.36.53-.95.99-.6.47-1.44.76-.86.3-2 .3m13.71-3q0-.39-.2-.72-.18-.35-.76-.62a7 7 0 0 0-1.74-.49 15 15 0 0 1-1.76-.44 6 6 0 0 1-1.33-.61 3 3 0 0 1-.84-.85q-.3-.49-.29-1.14 0-.63.3-1.18.31-.55.88-.99t1.38-.67a6 6 0 0 1 1.78-.25q1.41 0 2.4.45 1 .45 1.53 1.2t.53 1.65h-2q0-.44-.3-.85a2 2 0 0 0-.83-.69q-.54-.27-1.33-.27-.82 0-1.35.23a1.7 1.7 0 0 0-.75.58 1.3 1.3 0 0 0-.12 1.27q.12.22.41.42.3.18.83.35t1.35.33q1.44.3 2.37.7.93.41 1.39 1t.45 1.45q0 .7-.32 1.27t-.92 1q-.6.4-1.43.64-.83.22-1.85.22-1.55 0-2.62-.5a4 4 0 0 1-1.63-1.28 3 3 0 0 1-.55-1.67h2.01q.05.75.48 1.18.43.44 1.06.62a4.6 4.6 0 0 0 2.62-.02q.56-.2.86-.54t.29-.78m9.54-7.76v1.38h-6.34v-1.38zm-4.2-2.57h2.01v10.51q0 .54.18.81.19.28.48.37.3.08.63.08a4 4 0 0 0 .94-.11l.01 1.47q-.24.07-.63.13-.38.06-.92.06-.74 0-1.35-.26a2 2 0 0 1-.99-.88 3.4 3.4 0 0 1-.35-1.68zm13.45 11.33v-5.44q0-.63-.28-1.09a2 2 0 0 0-.82-.72 3 3 0 0 0-1.36-.25q-.76 0-1.34.23-.56.24-.88.62-.32.37-.32.82h-2q0-.56.32-1.13.33-.55.93-1 .62-.46 1.48-.72a6 6 0 0 1 1.92-.28q1.28 0 2.26.4a3.3 3.3 0 0 1 1.53 1.17q.57.79.57 1.97v4.92q0 .52.1 1.12t.3 1.02v.16h-2.08q-.15-.31-.24-.83a6 6 0 0 1-.09-.98m.35-4.6.02 1.26h-2.02q-.85 0-1.53.13-.67.12-1.13.36-.45.25-.69.62-.24.36-.24.85 0 .5.25.9.26.42.75.66.5.24 1.24.23a3.6 3.6 0 0 0 2.74-1.2q.42-.52.46-1l.85.88q-.07.4-.4.9-.34.5-.9.96-.55.45-1.33.75-.75.3-1.7.3-1.2 0-2.1-.42a3.5 3.5 0 0 1-1.38-1.13q-.5-.7-.49-1.59a3 3 0 0 1 1.43-2.58q.7-.44 1.67-.66a10 10 0 0 1 2.17-.22zm11.63 3.61q0-.39-.2-.72-.18-.35-.77-.62a7 7 0 0 0-1.73-.49 15 15 0 0 1-1.76-.44 6 6 0 0 1-1.33-.61 3 3 0 0 1-.84-.85q-.3-.49-.3-1.14 0-.63.31-1.18t.88-.99 1.37-.67a6 6 0 0 1 1.79-.25q1.41 0 2.4.45 1 .45 1.53 1.2t.53 1.65h-2q0-.44-.3-.85a2 2 0 0 0-.83-.69q-.54-.27-1.33-.27-.83 0-1.35.23a1.7 1.7 0 0 0-.75.58 1.3 1.3 0 0 0-.12 1.27q.12.22.41.42.3.18.82.35.54.16 1.36.33 1.44.3 2.37.7.93.41 1.38 1t.46 1.45q0 .7-.32 1.27-.31.58-.93 1-.6.4-1.42.64-.83.22-1.86.22a6 6 0 0 1-2.62-.5 4 4 0 0 1-1.62-1.28 3 3 0 0 1-.55-1.67h2.01q.05.75.48 1.18.43.44 1.06.62a4.6 4.6 0 0 0 2.62-.02q.56-.2.86-.54t.29-.78m17.51.75V312.2h2.02v14.99h-1.84zm-7.88-3.11v-.2q0-1.23.33-2.2.34-1 .94-1.71.62-.71 1.46-1.1.85-.39 1.9-.39 1.1 0 1.93.35.84.35 1.41 1.01.59.66.92 1.58.33.93.47 2.1v.9a8 8 0 0 1-.47 2.09 5 5 0 0 1-.92 1.58 4 4 0 0 1-1.4 1 5 5 0 0 1-3.84-.06 4 4 0 0 1-1.46-1.12 5 5 0 0 1-.94-1.7 7 7 0 0 1-.33-2.13m2.02-.2v.2q0 .78.17 1.48t.56 1.22a2.7 2.7 0 0 0 2.36 1.12q1 0 1.64-.38.65-.38 1.04-1 .39-.63.6-1.36v-2.35q-.12-.54-.38-1.04a3 3 0 0 0-.62-.9 3 3 0 0 0-.95-.63q-.55-.24-1.3-.23-.84 0-1.42.3-.59.31-.97.85a4 4 0 0 0-.56 1.23q-.18.69-.17 1.48m10.47.21v-.23q0-1.14.36-2.12a5 5 0 0 1 2.74-2.84q1-.4 2.21-.4 1.23 0 2.22.4a4.8 4.8 0 0 1 2.76 2.84q.37.98.37 2.12v.23q0 1.14-.37 2.11a4.95 4.95 0 0 1-4.96 3.24q-1.23 0-2.22-.4a5 5 0 0 1-1.69-1.13 5 5 0 0 1-1.06-1.7 6 6 0 0 1-.36-2.12m2-.23v.23q0 .78.2 1.49.21.69.62 1.23a3 3 0 0 0 2.51 1.15q.82 0 1.44-.3.63-.32 1.04-.85.4-.54.62-1.23.21-.7.21-1.5v-.22a5 5 0 0 0-.21-1.47 4 4 0 0 0-.63-1.24 3 3 0 0 0-1.04-.86q-.62-.3-1.45-.31-.82 0-1.45.3-.62.32-1.04.87-.4.54-.62 1.24-.2.69-.2 1.47m13.35-9.61v15h-2.02v-15zm2.68 9.84v-.23q0-1.14.37-2.12a4.94 4.94 0 0 1 4.95-3.25q1.23 0 2.22.41a5 5 0 0 1 2.76 2.84q.37.98.37 2.12v.23q0 1.14-.37 2.11a5 5 0 0 1-4.96 3.24q-1.23 0-2.22-.4a5 5 0 0 1-1.69-1.13 5 5 0 0 1-1.06-1.7 6 6 0 0 1-.37-2.12m2-.23v.23q0 .78.21 1.49.2.69.62 1.23a3 3 0 0 0 2.5 1.15q.84 0 1.45-.3.63-.32 1.04-.85.4-.54.62-1.23.21-.7.21-1.5v-.22q0-.78-.22-1.47a4 4 0 0 0-.62-1.24 3 3 0 0 0-1.04-.86q-.62-.3-1.45-.31-.82 0-1.45.3-.62.32-1.04.87-.41.54-.62 1.24-.2.69-.2 1.47m13.17-3.51v8.9h-2v-10.56h1.94zm3.66-1.72-.01 1.68-.48-.06-.5-.02q-.7 0-1.22.2a2.6 2.6 0 0 0-1.48 1.38q-.21.48-.27 1.06l-.57.29q0-.96.2-1.8.22-.84.67-1.48.45-.65 1.13-1.02a3.4 3.4 0 0 1 2.53-.23m6.82 5.46v-.23q0-1.14.37-2.12a4.94 4.94 0 0 1 4.94-3.25q1.24 0 2.22.41a5 5 0 0 1 2.76 2.84q.37.98.37 2.12v.23q0 1.14-.37 2.11a5 5 0 0 1-4.95 3.24q-1.24 0-2.22-.4a5 5 0 0 1-1.7-1.13 5 5 0 0 1-1.05-1.7 6 6 0 0 1-.37-2.12m2-.23v.23q0 .78.2 1.49.21.69.63 1.23a3 3 0 0 0 2.5 1.15q.84 0 1.45-.3.63-.32 1.04-.85.41-.54.61-1.23.22-.7.22-1.5v-.22q0-.78-.22-1.47a4 4 0 0 0-.62-1.24 3 3 0 0 0-1.05-.86q-.6-.3-1.44-.31-.83 0-1.46.3-.6.32-1.03.87-.42.54-.62 1.24-.2.69-.2 1.47m13.17-3.51v8.9h-2v-10.56h1.94zm3.66-1.72-.01 1.68-.48-.06-.5-.02q-.7 0-1.22.2a2.6 2.6 0 0 0-1.49 1.38q-.2.48-.27 1.06l-.56.29q0-.96.2-1.8.22-.84.67-1.48.45-.65 1.12-1.02a3.4 3.4 0 0 1 2.54-.23m6.32 9.33q.72 0 1.32-.26.6-.27 1-.72.38-.47.44-1.07h1.9q-.05.94-.7 1.75-.63.8-1.68 1.3a5 5 0 0 1-2.28.48q-1.32 0-2.3-.41a4.5 4.5 0 0 1-2.6-2.84 6 6 0 0 1-.3-2.02v-.4q0-1.08.3-2.02.33-.95.97-1.69.64-.73 1.62-1.15a6 6 0 0 1 2.3-.42q1.4 0 2.41.51a4 4 0 0 1 1.62 1.37q.59.86.64 1.95h-1.9a2.5 2.5 0 0 0-1.36-2.02 3 3 0 0 0-1.4-.32q-.92 0-1.55.33-.62.31-.98.88-.37.54-.52 1.22t-.15 1.35v.41q0 .7.15 1.37t.5 1.22q.37.55.99.88.63.32 1.56.32m9.09-9.27v10.56h-2.01v-10.56zm-2.16-2.8q0-.45.29-.74.3-.3.89-.3.57 0 .88.3.3.3.3.74 0 .42-.3.72t-.88.3q-.6 0-.89-.3a1 1 0 0 1-.3-.72m5.42 12.4q0-.45.31-.77.33-.32.94-.32t.92.32.32.77-.32.76-.92.32-.94-.32q-.3-.3-.3-.76" fill="#0F172A"/>
</svg>
